<svg xmlns="http://www.w3.org/2000/svg" xmlns:xlink="http://www.w3.org/1999/xlink" width="500" zoomAndPan="magnify" viewBox="0 0 375 374.999991" height="500" preserveAspectRatio="xMidYMid meet" version="1.0"><path fill="#d9d9d9" d="M 70.457031 156.253906 C 82.089844 94.519531 143.855469 54.15625 208.140625 66.285156 C 272.4375 78.394531 315.273438 138.457031 303.640625 200.191406 C 298.167969 229.230469 281.433594 254.601562 256.523438 271.589844 C 255.253906 272.472656 254.480469 273.875 254.433594 275.378906 L 253.449219 313.175781 L 222.398438 289.683594 C 221.160156 288.730469 219.519531 288.402344 217.996094 288.773438 C 200.964844 292.980469 183.4375 293.441406 165.957031 290.144531 C 101.660156 278.035156 58.824219 217.957031 70.457031 156.253906 Z M 54.558594 153 C 41.34375 223.160156 90.039062 291.441406 163.109375 305.210938 C 179.578125 308.3125 196.027344 308.492188 212.210938 305.746094 C 217.101562 304.925781 222.175781 306.121094 226.125 309.101562 L 258.433594 333.5625 C 259.117188 334.070312 259.910156 334.414062 260.730469 334.5625 C 261.804688 334.773438 262.921875 334.652344 263.953125 334.203125 C 265.757812 333.398438 266.917969 331.683594 266.964844 329.761719 L 267.992188 290.398438 C 268.128906 285.613281 270.410156 281.152344 274.199219 278.109375 C 298.628906 258.570312 314.84375 231.351562 320.03125 200.65625 C 332.144531 129.210938 281.507812 61.824219 206.960938 50.027344 C 135.382812 38.691406 67.535156 84.167969 54.558594 153 " fill-opacity="1" fill-rule="nonzero"/><path fill="#d9d9d9" d="M 205.796875 89.714844 C 218.804688 89.714844 225.304688 98.230469 225.304688 107.972656 C 225.304688 120.128906 214.015625 131.386719 199.292969 131.386719 C 186.972656 131.386719 179.785156 124.394531 180.113281 112.835938 C 180.113281 103.09375 188.675781 89.714844 205.796875 89.714844 " fill-opacity="1" fill-rule="nonzero"/><path fill="#d9d9d9" d="M 165.75 269.292969 C 155.472656 269.292969 147.941406 263.207031 155.144531 236.449219 L 166.929688 188.976562 C 168.972656 181.371094 169.316406 178.328125 166.929688 178.328125 C 163.839844 178.328125 150.507812 183.578125 142.632812 188.753906 L 137.5 180.550781 C 162.484375 160.160156 191.226562 148.214844 203.542969 148.214844 C 213.804688 148.214844 215.523438 160.070312 210.390625 178.328125 L 196.894531 228.234375 C 194.507812 237.046875 195.535156 240.089844 197.921875 240.089844 C 201.007812 240.089844 211.105469 236.4375 221.027344 228.828125 L 226.855469 236.4375 C 202.546875 260.152344 176.011719 269.292969 165.75 269.292969 " fill-opacity="1" fill-rule="nonzero"/></svg>