<svg xmlns="http://www.w3.org/2000/svg" xmlns:xlink="http://www.w3.org/1999/xlink" width="500" zoomAndPan="magnify" viewBox="0 0 375 374.999991" height="500" preserveAspectRatio="xMidYMid meet" version="1.0"><defs><clipPath id="af55e5158d"><path d="M 68.25 37.5 L 306.75 37.5 L 306.75 337.5 L 68.25 337.5 Z M 68.25 37.5 " clip-rule="nonzero"/></clipPath></defs><g clip-path="url(#af55e5158d)"><path fill="#d9d9d9" d="M 257.53125 307.871094 L 215.535156 307.871094 L 215.535156 291 L 257.53125 291 Z M 203.351562 230.6875 C 198.40625 234.085938 193.242188 236.101562 187.835938 236.308594 L 187.546875 236.324219 L 187.160156 236.308594 C 177.988281 235.957031 169.421875 230.976562 161.691406 221.503906 C 148.097656 204.839844 133.910156 183.316406 137.6875 138.582031 C 137.984375 135.046875 138.699219 131.910156 139.605469 128.957031 L 186.957031 141.011719 C 187.308594 141.109375 187.6875 141.109375 188.035156 141.011719 L 235.390625 128.957031 C 236.292969 131.910156 237.011719 135.046875 237.308594 138.582031 C 240.113281 171.789062 233.011719 192.195312 223.609375 207.328125 L 208.0625 207.328125 C 201.375 207.328125 195.90625 212.796875 195.90625 219.484375 C 195.90625 224.503906 198.984375 228.835938 203.351562 230.6875 Z M 297.53125 276.878906 C 295.554688 265.105469 287.347656 255.261719 276.128906 251.191406 L 224.542969 232.472656 C 224.792969 232.175781 225.066406 231.945312 225.316406 231.644531 L 226.160156 231.644531 C 229.714844 231.644531 232.890625 230.070312 235.121094 227.617188 L 259.316406 227.617188 L 277.097656 169.765625 C 293.199219 167.761719 305.746094 154.144531 305.746094 137.511719 C 305.746094 120.566406 292.730469 106.757812 276.203125 105.160156 C 265.398438 66.277344 229.773438 37.621094 187.496094 37.621094 C 145.21875 37.621094 109.59375 66.277344 98.796875 105.160156 C 82.265625 106.761719 69.253906 120.566406 69.253906 137.511719 C 69.253906 155.519531 83.90625 170.171875 101.914062 170.171875 L 108.472656 170.171875 L 108.472656 129.761719 C 108.472656 86.183594 143.921875 50.730469 187.496094 50.730469 C 231.070312 50.730469 266.523438 86.183594 266.523438 129.761719 L 266.523438 159.535156 L 249.628906 214.503906 L 237.621094 214.503906 C 247.8125 197.667969 254.980469 176.152344 253.417969 144.144531 C 256.316406 125.398438 257.496094 102.058594 248.027344 92.246094 C 236.664062 78.492188 213.484375 69.953125 187.496094 69.953125 C 161.472656 69.953125 138.253906 78.523438 127.039062 92.175781 C 117.496094 101.949219 118.675781 125.347656 121.578125 144.136719 C 119.441406 187.886719 133.632812 212.003906 149.503906 231.449219 C 149.808594 231.828125 150.148438 232.105469 150.457031 232.472656 L 98.867188 251.191406 C 87.644531 255.265625 79.445312 265.105469 77.460938 276.878906 L 68.5625 329.804688 C 68.242188 331.707031 68.777344 333.65625 70.023438 335.125 C 71.269531 336.597656 73.101562 337.449219 75.03125 337.449219 L 299.96875 337.449219 C 301.898438 337.449219 303.730469 336.597656 304.976562 335.125 C 306.222656 333.65625 306.757812 331.707031 306.4375 329.804688 L 297.53125 276.878906 " fill-opacity="1" fill-rule="nonzero"/></g></svg>