<svg xmlns="http://www.w3.org/2000/svg" xmlns:xlink="http://www.w3.org/1999/xlink" width="500" zoomAndPan="magnify" viewBox="0 0 375 374.999991" height="500" preserveAspectRatio="xMidYMid meet" version="1.0"><defs><clipPath id="d49ae1a0b1"><path d="M 236 67.875 L 311 67.875 L 311 155 L 236 155 Z M 236 67.875 " clip-rule="nonzero"/></clipPath><clipPath id="9ca162ea5e"><path d="M 233 155 L 337.5 155 L 337.5 244 L 233 244 Z M 233 155 " clip-rule="nonzero"/></clipPath><clipPath id="aeef88f1c1"><path d="M 111 203 L 265 203 L 265 307.125 L 111 307.125 Z M 111 203 " clip-rule="nonzero"/></clipPath><clipPath id="e49d9deb8e"><path d="M 64 67.875 L 139 67.875 L 139 155 L 64 155 Z M 64 67.875 " clip-rule="nonzero"/></clipPath><clipPath id="1f76d325c1"><path d="M 37.5 155 L 142 155 L 142 244 L 37.5 244 Z M 37.5 155 " clip-rule="nonzero"/></clipPath></defs><path stroke-linecap="butt" transform="matrix(0.0796969, 0, 0, -0.0796969, -8.355035, 383.394848)" fill="none" stroke-linejoin="miter" d="M 2803.292586 2099.904272 C 2803.243572 2108.089584 2803.194558 2108.971834 2803.194558 2107.40339 L 2803.194558 2106.472127 C 2803.194558 2104.707629 2803.194558 2101.766798 2803.292586 2099.904272 Z M 2803.292586 2099.904272 " stroke="#212121" stroke-width="153.600998" stroke-opacity="1" stroke-miterlimit="2.613"/><g clip-path="url(#d49ae1a0b1)"><path fill="#d9d9d9" d="M 273.207031 142.695312 C 279.800781 142.695312 285.835938 139.371094 290.261719 133.992188 C 294.964844 128.285156 297.867188 120.3125 297.867188 111.421875 C 297.867188 102.125 296.941406 93.847656 293.328125 88.308594 C 290.042969 83.269531 283.945312 80.152344 273.207031 80.152344 C 262.460938 80.152344 256.367188 83.269531 253.078125 88.308594 C 249.46875 93.847656 248.539062 102.125 248.539062 111.421875 C 248.539062 120.3125 251.449219 128.285156 256.144531 133.992188 C 260.570312 139.371094 266.609375 142.695312 273.207031 142.695312 Z M 299.683594 141.734375 C 292.96875 149.890625 283.609375 154.9375 273.207031 154.9375 C 262.796875 154.9375 253.441406 149.890625 246.726562 141.734375 C 240.285156 133.914062 236.296875 123.191406 236.296875 111.421875 C 236.296875 100.074219 237.632812 89.652344 242.847656 81.660156 C 248.386719 73.164062 257.6875 67.910156 273.207031 67.910156 C 288.722656 67.910156 298.019531 73.164062 303.5625 81.660156 C 308.773438 89.652344 310.113281 100.074219 310.113281 111.421875 C 310.113281 123.191406 306.125 133.914062 299.683594 141.734375 " fill-opacity="1" fill-rule="nonzero"/></g><g clip-path="url(#9ca162ea5e)"><path fill="#d9d9d9" d="M 325.1875 214.625 C 324.921875 197.875 323.804688 187.269531 319.015625 180.699219 C 314.636719 174.699219 306.40625 171.207031 291.921875 168.367188 C 288.628906 170.929688 282.476562 174.382812 273.207031 174.382812 C 263.929688 174.382812 257.78125 170.929688 254.484375 168.367188 C 245.15625 170.195312 238.421875 172.292969 233.640625 175.164062 C 235.238281 170.402344 236.269531 165.441406 236.734375 160.425781 C 241.90625 158.605469 248.015625 157.121094 255.265625 155.808594 L 258.835938 155.167969 L 261.101562 157.988281 C 261.109375 158 264.347656 162.140625 273.207031 162.140625 C 282.054688 162.140625 285.292969 158 285.304688 157.988281 L 287.574219 155.167969 L 291.136719 155.808594 C 310.765625 159.351562 322.050781 164.183594 328.867188 173.527344 C 335.554688 182.699219 337.074219 195.203125 337.378906 214.429688 L 337.390625 215.273438 C 337.429688 217.5 337.46875 219.703125 337.46875 219.816406 L 336.746094 222.664062 C 336.71875 222.722656 326.507812 243.195312 273.207031 243.195312 C 271.292969 243.195312 269.445312 243.164062 267.640625 243.113281 C 266.796875 238.835938 265.632812 234.667969 264.03125 230.75 C 266.902344 230.882812 269.953125 230.953125 273.207031 230.953125 C 311.476562 230.953125 322.582031 221.242188 325.222656 218.007812 C 325.21875 216.566406 325.207031 216.023438 325.199219 215.464844 L 325.1875 214.625 " fill-opacity="1" fill-rule="nonzero"/></g><path fill="#d9d9d9" d="M 187.515625 188.976562 C 195.898438 188.976562 203.554688 184.769531 209.160156 177.96875 C 215.03125 170.835938 218.664062 160.894531 218.664062 149.832031 C 218.664062 138.359375 217.496094 128.117188 212.953125 121.152344 C 208.738281 114.6875 201.019531 110.6875 187.515625 110.6875 C 174.007812 110.6875 166.292969 114.6875 162.078125 121.152344 C 157.53125 128.117188 156.367188 138.359375 156.367188 149.832031 C 156.367188 160.894531 160 170.835938 165.871094 177.96875 C 171.472656 184.769531 179.132812 188.976562 187.515625 188.976562 Z M 218.574219 185.710938 C 210.691406 195.292969 199.714844 201.21875 187.515625 201.21875 C 175.316406 201.21875 164.339844 195.292969 156.457031 185.714844 C 148.835938 176.464844 144.128906 163.773438 144.128906 149.832031 C 144.128906 136.304688 145.703125 123.917969 151.84375 114.503906 C 158.3125 104.582031 169.230469 98.449219 187.515625 98.449219 C 205.796875 98.449219 216.714844 104.582031 223.1875 114.503906 C 229.328125 123.917969 230.902344 136.304688 230.902344 149.832031 C 230.902344 163.773438 226.195312 176.464844 218.574219 185.710938 " fill-opacity="1" fill-rule="nonzero"/><g clip-path="url(#aeef88f1c1)"><path fill="#d9d9d9" d="M 251.722656 273.835938 C 251.402344 253.300781 250.007812 240.261719 244.007812 232.035156 C 238.433594 224.390625 228.078125 220.019531 209.84375 216.488281 C 206.171875 219.480469 198.863281 223.855469 187.515625 223.855469 C 176.167969 223.855469 168.859375 219.480469 165.183594 216.488281 C 147.148438 219.980469 136.816406 224.300781 131.203125 231.796875 C 125.191406 239.824219 123.703125 252.503906 123.332031 272.421875 L 123.316406 273.160156 C 123.289062 274.605469 123.261719 275.90625 123.257812 278.375 C 126.207031 282.203125 139.609375 294.914062 187.515625 294.914062 C 235.421875 294.914062 248.824219 282.203125 251.773438 278.375 C 251.769531 276.53125 251.753906 275.714844 251.738281 274.894531 Z M 253.859375 224.863281 C 261.753906 235.695312 263.554688 250.632812 263.917969 273.648438 L 263.933594 274.707031 C 263.976562 277.230469 264.019531 279.703125 264.019531 280.144531 L 263.300781 282.988281 C 263.261719 283.058594 251.25 307.152344 187.515625 307.152344 C 123.78125 307.152344 111.765625 283.058594 111.730469 282.988281 L 111.011719 280.144531 C 111.011719 278.785156 111.0625 276.066406 111.121094 272.972656 L 111.136719 272.230469 C 111.558594 249.75 113.484375 235.113281 121.449219 224.480469 C 129.5 213.730469 142.886719 208.105469 166.03125 203.925781 L 169.585938 203.28125 L 171.867188 206.101562 C 171.878906 206.121094 176.175781 211.613281 187.515625 211.613281 C 198.855469 211.613281 203.152344 206.121094 203.164062 206.101562 L 205.441406 203.28125 L 209 203.925781 C 232.410156 208.152344 245.835938 213.863281 253.859375 224.863281 " fill-opacity="1" fill-rule="nonzero"/></g><g clip-path="url(#e49d9deb8e)"><path fill="#d9d9d9" d="M 101.808594 142.695312 C 95.214844 142.695312 89.179688 139.371094 84.753906 133.992188 C 80.054688 128.285156 77.148438 120.3125 77.148438 111.421875 C 77.148438 102.125 78.074219 93.847656 81.6875 88.308594 C 84.972656 83.269531 91.070312 80.152344 101.808594 80.152344 C 112.554688 80.152344 118.648438 83.269531 121.9375 88.308594 C 125.550781 93.847656 126.476562 102.125 126.476562 111.421875 C 126.476562 120.3125 123.566406 128.285156 118.871094 133.992188 C 114.445312 139.371094 108.40625 142.695312 101.808594 142.695312 Z M 75.332031 141.734375 C 82.046875 149.890625 91.40625 154.9375 101.808594 154.9375 C 112.21875 154.9375 121.574219 149.890625 128.289062 141.734375 C 134.730469 133.914062 138.71875 123.191406 138.71875 111.421875 C 138.71875 100.074219 137.382812 89.652344 132.167969 81.660156 C 126.628906 73.164062 117.328125 67.910156 101.808594 67.910156 C 86.292969 67.910156 76.996094 73.164062 71.453125 81.660156 C 66.242188 89.652344 64.902344 100.074219 64.902344 111.421875 C 64.902344 123.191406 68.890625 133.914062 75.332031 141.734375 " fill-opacity="1" fill-rule="nonzero"/></g><g clip-path="url(#1f76d325c1)"><path fill="#d9d9d9" d="M 49.828125 214.625 C 50.09375 197.875 51.210938 187.269531 56 180.699219 C 60.378906 174.699219 68.609375 171.207031 83.09375 168.367188 C 86.386719 170.929688 92.539062 174.382812 101.808594 174.382812 C 111.085938 174.382812 117.234375 170.929688 120.53125 168.367188 C 129.859375 170.195312 136.59375 172.292969 141.378906 175.164062 C 139.777344 170.402344 138.746094 165.441406 138.28125 160.425781 C 133.109375 158.605469 127 157.121094 119.75 155.808594 L 116.183594 155.167969 L 113.910156 157.988281 C 113.90625 158 110.667969 162.140625 101.808594 162.140625 C 92.960938 162.140625 89.722656 158 89.710938 157.988281 L 87.441406 155.167969 L 83.878906 155.808594 C 64.25 159.351562 52.964844 164.183594 46.148438 173.527344 C 39.460938 182.699219 37.941406 195.203125 37.636719 214.429688 L 37.625 215.273438 C 37.585938 217.5 37.546875 219.703125 37.546875 219.816406 L 38.269531 222.664062 C 38.296875 222.722656 48.511719 243.195312 101.808594 243.195312 C 103.722656 243.195312 105.570312 243.164062 107.375 243.113281 C 108.21875 238.835938 109.382812 234.667969 110.984375 230.75 C 108.113281 230.882812 105.0625 230.953125 101.808594 230.953125 C 63.539062 230.953125 52.433594 221.242188 49.792969 218.007812 C 49.796875 216.566406 49.808594 216.023438 49.816406 215.464844 L 49.828125 214.625 " fill-opacity="1" fill-rule="nonzero"/></g></svg>