<svg xmlns="http://www.w3.org/2000/svg" xmlns:xlink="http://www.w3.org/1999/xlink" width="500" zoomAndPan="magnify" viewBox="0 0 375 374.999991" height="500" preserveAspectRatio="xMidYMid meet" version="1.0"><defs><clipPath id="47e6b0e1c2"><path d="M 220 222 L 337 222 L 337 337.5 L 220 337.5 Z M 220 222 " clip-rule="nonzero"/></clipPath></defs><path fill="#d9d9d9" d="M 161.398438 277.058594 C 159.058594 277.0625 156.714844 276.988281 154.378906 276.847656 C 152.039062 276.703125 149.707031 276.492188 147.382812 276.203125 C 145.058594 275.917969 142.742188 275.5625 140.441406 275.132812 C 138.136719 274.707031 135.847656 274.207031 133.578125 273.640625 C 131.304688 273.070312 129.050781 272.433594 126.816406 271.726562 C 124.582031 271.023438 122.375 270.246094 120.1875 269.40625 C 118.003906 268.5625 115.84375 267.652344 113.714844 266.679688 C 111.582031 265.703125 109.484375 264.664062 107.417969 263.5625 C 105.351562 262.457031 103.320312 261.292969 101.328125 260.0625 C 99.332031 258.835938 97.378906 257.546875 95.460938 256.199219 C 93.546875 254.851562 91.671875 253.445312 89.84375 251.980469 C 88.015625 250.519531 86.230469 249 84.496094 247.425781 C 82.757812 245.855469 81.074219 244.230469 79.4375 242.554688 C 77.800781 240.878906 76.21875 239.152344 74.6875 237.378906 C 73.15625 235.605469 71.679688 233.785156 70.261719 231.921875 C 68.84375 230.058594 67.484375 228.152344 66.179688 226.203125 C 64.878906 224.257812 63.640625 222.269531 62.457031 220.246094 C 61.277344 218.222656 60.164062 216.164062 59.109375 214.074219 C 58.054688 211.980469 57.066406 209.859375 56.144531 207.707031 C 55.21875 205.550781 54.363281 203.375 53.574219 201.167969 C 52.785156 198.960938 52.0625 196.734375 51.410156 194.484375 C 50.757812 192.234375 50.175781 189.964844 49.664062 187.679688 C 49.148438 185.394531 48.707031 183.097656 48.332031 180.78125 C 47.960938 178.46875 47.660156 176.148438 47.429688 173.816406 C 47.199219 171.484375 47.042969 169.148438 46.957031 166.808594 C 46.871094 164.46875 46.855469 162.125 46.914062 159.785156 C 46.972656 157.441406 47.101562 155.105469 47.300781 152.769531 C 47.503906 150.4375 47.773438 148.109375 48.117188 145.792969 C 48.464844 143.476562 48.878906 141.171875 49.363281 138.878906 C 49.847656 136.585938 50.402344 134.3125 51.027344 132.054688 C 51.652344 129.796875 52.347656 127.5625 53.109375 125.347656 C 53.871094 123.132812 54.703125 120.941406 55.597656 118.777344 C 56.496094 116.613281 57.457031 114.476562 58.484375 112.375 C 59.511719 110.269531 60.605469 108.195312 61.757812 106.160156 C 62.914062 104.121094 64.128906 102.121094 65.410156 100.15625 C 66.6875 98.191406 68.023438 96.269531 69.417969 94.390625 C 70.816406 92.507812 72.265625 90.671875 73.777344 88.878906 C 75.285156 87.085938 76.847656 85.34375 78.460938 83.644531 C 80.078125 81.949219 81.746094 80.304688 83.460938 78.710938 C 85.175781 77.117188 86.941406 75.578125 88.753906 74.089844 C 90.5625 72.605469 92.417969 71.175781 94.320312 69.804688 C 96.21875 68.433594 98.15625 67.121094 100.136719 65.867188 C 102.117188 64.617188 104.132812 63.425781 106.183594 62.296875 C 108.238281 61.167969 110.324219 60.101562 112.441406 59.101562 C 114.558594 58.101562 116.707031 57.164062 118.882812 56.296875 C 121.054688 55.429688 123.257812 54.625 125.480469 53.890625 C 127.707031 53.160156 129.949219 52.492188 132.214844 51.898438 C 134.480469 51.300781 136.761719 50.773438 139.0625 50.320312 C 141.359375 49.863281 143.667969 49.476562 145.992188 49.164062 C 148.3125 48.847656 150.640625 48.605469 152.976562 48.433594 C 155.3125 48.265625 157.652344 48.164062 159.996094 48.136719 C 162.335938 48.109375 164.679688 48.152344 167.019531 48.269531 C 169.359375 48.386719 171.691406 48.574219 174.019531 48.832031 C 176.347656 49.09375 178.667969 49.421875 180.976562 49.824219 C 183.28125 50.226562 185.574219 50.699219 187.855469 51.242188 C 190.132812 51.785156 192.394531 52.394531 194.636719 53.078125 C 196.875 53.757812 199.09375 54.507812 201.289062 55.324219 C 203.484375 56.144531 205.652344 57.027344 207.796875 57.976562 C 209.9375 58.929688 212.046875 59.945312 214.125 61.023438 C 216.203125 62.105469 218.246094 63.246094 220.253906 64.453125 C 222.265625 65.65625 224.234375 66.925781 226.164062 68.25 C 228.09375 69.578125 229.984375 70.960938 231.828125 72.40625 C 233.675781 73.847656 235.476562 75.34375 237.230469 76.898438 C 238.984375 78.449219 240.6875 80.054688 242.34375 81.714844 C 244.332031 83.699219 246.246094 85.757812 248.082031 87.882812 C 249.917969 90.011719 251.675781 92.203125 253.351562 94.460938 C 255.027344 96.71875 256.617188 99.03125 258.121094 101.40625 C 259.625 103.78125 261.042969 106.207031 262.367188 108.6875 C 263.695312 111.164062 264.925781 113.6875 266.066406 116.257812 C 267.207031 118.828125 268.25 121.433594 269.199219 124.082031 C 270.148438 126.726562 270.996094 129.40625 271.746094 132.113281 C 272.496094 134.820312 273.148438 137.554688 273.695312 140.3125 C 274.246094 143.070312 274.691406 145.839844 275.035156 148.632812 C 275.378906 151.421875 275.621094 154.21875 275.761719 157.027344 C 275.898438 159.835938 275.933594 162.644531 275.863281 165.453125 C 275.796875 168.261719 275.625 171.066406 275.347656 173.863281 C 275.074219 176.660156 274.695312 179.445312 274.214844 182.214844 C 273.734375 184.984375 273.152344 187.730469 272.46875 190.457031 C 271.785156 193.183594 271.003906 195.882812 270.121094 198.550781 C 269.242188 201.222656 268.261719 203.855469 267.183594 206.449219 C 266.109375 209.046875 264.9375 211.601562 263.675781 214.109375 C 262.410156 216.621094 261.054688 219.082031 259.609375 221.492188 C 258.164062 223.902344 256.632812 226.257812 255.011719 228.554688 C 253.394531 230.851562 251.691406 233.089844 249.910156 235.261719 C 248.125 237.433594 246.261719 239.535156 244.324219 241.570312 C 242.386719 243.605469 240.375 245.566406 238.292969 247.453125 C 236.207031 249.339844 234.058594 251.148438 231.839844 252.878906 C 229.625 254.605469 227.347656 256.25 225.007812 257.808594 C 222.671875 259.371094 220.277344 260.84375 217.832031 262.226562 C 215.386719 263.613281 212.890625 264.902344 210.351562 266.105469 C 207.808594 267.304688 205.226562 268.410156 202.601562 269.417969 C 199.980469 270.429688 197.324219 271.339844 194.632812 272.15625 C 191.941406 272.96875 189.226562 273.683594 186.484375 274.296875 C 183.738281 274.910156 180.976562 275.425781 178.195312 275.835938 C 175.417969 276.246094 172.625 276.550781 169.820312 276.757812 C 167.015625 276.960938 164.210938 277.0625 161.398438 277.058594 Z M 161.398438 73.347656 C 159.691406 73.34375 157.988281 73.390625 156.285156 73.484375 C 154.582031 73.578125 152.882812 73.71875 151.183594 73.910156 C 149.488281 74.101562 147.800781 74.34375 146.121094 74.632812 C 144.4375 74.917969 142.765625 75.253906 141.101562 75.640625 C 139.441406 76.023438 137.789062 76.453125 136.152344 76.933594 C 134.515625 77.410156 132.890625 77.9375 131.285156 78.507812 C 129.675781 79.078125 128.085938 79.695312 126.515625 80.359375 C 124.941406 81.023438 123.390625 81.730469 121.859375 82.480469 C 120.324219 83.234375 118.816406 84.027344 117.332031 84.867188 C 115.84375 85.703125 114.382812 86.582031 112.949219 87.503906 C 111.511719 88.425781 110.101562 89.390625 108.722656 90.390625 C 107.34375 91.394531 105.992188 92.4375 104.671875 93.515625 C 103.347656 94.597656 102.058594 95.714844 100.804688 96.867188 C 99.546875 98.019531 98.324219 99.210938 97.132812 100.433594 C 95.945312 101.65625 94.792969 102.914062 93.675781 104.203125 C 92.558594 105.496094 91.480469 106.816406 90.441406 108.167969 C 89.398438 109.519531 88.398438 110.902344 87.433594 112.308594 C 86.472656 113.71875 85.550781 115.15625 84.671875 116.617188 C 83.792969 118.078125 82.957031 119.566406 82.160156 121.074219 C 81.367188 122.585938 80.617188 124.117188 79.910156 125.667969 C 79.203125 127.222656 78.542969 128.792969 77.925781 130.386719 C 77.308594 131.976562 76.738281 133.585938 76.214844 135.207031 C 75.6875 136.832031 75.210938 138.46875 74.78125 140.121094 C 74.351562 141.769531 73.96875 143.433594 73.632812 145.105469 C 73.296875 146.777344 73.011719 148.460938 72.769531 150.148438 C 72.53125 151.839844 72.339844 153.535156 72.199219 155.234375 C 72.058594 156.933594 71.964844 158.636719 71.921875 160.34375 C 71.875 162.050781 71.882812 163.753906 71.933594 165.460938 C 71.988281 167.167969 72.089844 168.867188 72.242188 170.566406 C 72.394531 172.269531 72.59375 173.960938 72.839844 175.648438 C 73.089844 177.339844 73.386719 179.019531 73.730469 180.6875 C 74.074219 182.359375 74.464844 184.019531 74.90625 185.667969 C 75.347656 187.316406 75.832031 188.953125 76.367188 190.574219 C 76.898438 192.195312 77.480469 193.796875 78.105469 195.386719 C 78.730469 196.972656 79.398438 198.542969 80.113281 200.089844 C 80.828125 201.640625 81.589844 203.167969 82.390625 204.671875 C 83.195312 206.179688 84.039062 207.660156 84.925781 209.117188 C 85.816406 210.574219 86.742188 212.003906 87.714844 213.410156 C 88.683594 214.8125 89.691406 216.1875 90.738281 217.535156 C 91.789062 218.878906 92.875 220.195312 94 221.480469 C 95.121094 222.761719 96.28125 224.015625 97.476562 225.230469 C 98.671875 226.449219 99.902344 227.632812 101.164062 228.777344 C 102.429688 229.925781 103.722656 231.035156 105.050781 232.109375 C 106.378906 233.179688 107.734375 234.214844 109.121094 235.210938 C 110.507812 236.203125 111.921875 237.160156 113.359375 238.074219 C 114.800781 238.988281 116.269531 239.859375 117.757812 240.6875 C 119.25 241.519531 120.761719 242.304688 122.300781 243.046875 C 123.835938 243.792969 125.390625 244.488281 126.96875 245.144531 C 128.542969 245.796875 130.136719 246.40625 131.746094 246.96875 C 133.359375 247.53125 134.984375 248.046875 136.625 248.515625 C 138.265625 248.988281 139.917969 249.410156 141.582031 249.785156 C 143.246094 250.160156 144.921875 250.484375 146.601562 250.765625 C 148.285156 251.042969 149.976562 251.273438 151.671875 251.457031 C 153.371094 251.636719 155.070312 251.769531 156.773438 251.855469 C 158.480469 251.941406 160.183594 251.976562 161.890625 251.960938 C 163.597656 251.949219 165.300781 251.886719 167.003906 251.777344 C 168.707031 251.664062 170.40625 251.503906 172.097656 251.296875 C 173.792969 251.089844 175.476562 250.832031 177.15625 250.527344 C 178.835938 250.222656 180.503906 249.871094 182.164062 249.46875 C 183.820312 249.070312 185.46875 248.621094 187.101562 248.125 C 188.734375 247.632812 190.351562 247.089844 191.953125 246.503906 C 193.554688 245.914062 195.136719 245.28125 196.703125 244.605469 C 198.269531 243.925781 199.8125 243.203125 201.339844 242.4375 C 202.863281 241.667969 204.363281 240.859375 205.839844 240.007812 C 207.320312 239.152344 208.773438 238.257812 210.199219 237.324219 C 211.625 236.386719 213.023438 235.410156 214.394531 234.394531 C 215.765625 233.378906 217.105469 232.324219 218.414062 231.230469 C 219.726562 230.136719 221.003906 229.007812 222.25 227.839844 C 223.492188 226.675781 224.703125 225.472656 225.882812 224.238281 C 227.058594 223 228.199219 221.734375 229.300781 220.433594 C 230.40625 219.132812 231.472656 217.800781 232.5 216.4375 C 233.527344 215.074219 234.515625 213.683594 235.460938 212.265625 C 236.410156 210.847656 237.316406 209.402344 238.179688 207.929688 C 239.046875 206.460938 239.867188 204.964844 240.648438 203.449219 C 241.425781 201.929688 242.160156 200.390625 242.851562 198.832031 C 243.542969 197.269531 244.191406 195.691406 244.789062 194.09375 C 245.390625 192.5 245.945312 190.886719 246.453125 189.257812 C 246.960938 187.628906 247.421875 185.984375 247.835938 184.332031 C 248.25 182.675781 248.617188 181.007812 248.9375 179.332031 C 249.253906 177.65625 249.527344 175.972656 249.746094 174.28125 C 249.96875 172.589844 250.144531 170.890625 250.269531 169.191406 C 250.394531 167.488281 250.46875 165.785156 250.496094 164.078125 C 250.523438 162.371094 250.5 160.667969 250.429688 158.960938 C 250.359375 157.257812 250.242188 155.554688 250.074219 153.859375 C 249.90625 152.160156 249.6875 150.46875 249.421875 148.78125 C 249.15625 147.097656 248.84375 145.421875 248.484375 143.753906 C 248.121094 142.085938 247.714844 140.429688 247.257812 138.785156 C 246.800781 137.140625 246.296875 135.511719 245.75 133.894531 C 245.199219 132.28125 244.605469 130.683594 243.964844 129.101562 C 243.320312 127.519531 242.636719 125.957031 241.90625 124.414062 C 241.175781 122.875 240.402344 121.355469 239.582031 119.855469 C 238.765625 118.359375 237.90625 116.886719 237.003906 115.4375 C 236.101562 113.988281 235.160156 112.566406 234.175781 111.175781 C 233.191406 109.78125 232.167969 108.414062 231.105469 107.078125 C 230.042969 105.742188 228.945312 104.4375 227.808594 103.167969 C 226.671875 101.894531 225.5 100.65625 224.292969 99.449219 C 222.234375 97.390625 220.078125 95.433594 217.824219 93.585938 C 215.574219 91.734375 213.238281 90 210.816406 88.382812 C 208.394531 86.761719 205.898438 85.261719 203.328125 83.886719 C 200.761719 82.511719 198.128906 81.269531 195.4375 80.152344 C 192.746094 79.035156 190.007812 78.050781 187.222656 77.203125 C 184.433594 76.355469 181.609375 75.644531 178.753906 75.074219 C 175.898438 74.503906 173.019531 74.074219 170.117188 73.785156 C 167.21875 73.496094 164.3125 73.351562 161.398438 73.347656 Z M 161.398438 73.347656 " fill-opacity="1" fill-rule="nonzero"/><g clip-path="url(#47e6b0e1c2)"><path fill="#d9d9d9" d="M 323.664062 337.5 C 322 337.492188 320.398438 337.167969 318.859375 336.523438 C 317.324219 335.882812 315.96875 334.96875 314.796875 333.789062 L 224.542969 243.601562 C 223.960938 243.015625 223.4375 242.378906 222.980469 241.695312 C 222.519531 241.007812 222.132812 240.28125 221.816406 239.515625 C 221.5 238.753906 221.261719 237.96875 221.097656 237.15625 C 220.9375 236.347656 220.859375 235.527344 220.859375 234.703125 C 220.859375 233.875 220.9375 233.054688 221.097656 232.246094 C 221.261719 231.433594 221.5 230.648438 221.816406 229.886719 C 222.132812 229.121094 222.519531 228.394531 222.980469 227.710938 C 223.4375 227.023438 223.960938 226.386719 224.542969 225.800781 C 225.128906 225.21875 225.765625 224.695312 226.453125 224.238281 C 227.136719 223.777344 227.863281 223.390625 228.628906 223.074219 C 229.390625 222.757812 230.175781 222.519531 230.988281 222.359375 C 231.796875 222.195312 232.617188 222.117188 233.445312 222.117188 C 234.269531 222.117188 235.089844 222.195312 235.898438 222.359375 C 236.710938 222.519531 237.496094 222.757812 238.257812 223.074219 C 239.023438 223.390625 239.75 223.777344 240.4375 224.238281 C 241.121094 224.695312 241.757812 225.21875 242.34375 225.800781 L 332.53125 316.054688 C 333.40625 316.933594 334.132812 317.921875 334.714844 319.015625 C 335.296875 320.109375 335.710938 321.265625 335.949219 322.480469 C 336.191406 323.699219 336.25 324.921875 336.128906 326.15625 C 336.007812 327.390625 335.707031 328.582031 335.234375 329.726562 C 334.761719 330.875 334.132812 331.925781 333.347656 332.886719 C 332.5625 333.847656 331.652344 334.671875 330.625 335.363281 C 329.59375 336.054688 328.488281 336.582031 327.300781 336.945312 C 326.117188 337.308594 324.902344 337.496094 323.664062 337.5 Z M 323.664062 337.5 " fill-opacity="1" fill-rule="nonzero"/></g></svg>