<svg xmlns="http://www.w3.org/2000/svg" xmlns:xlink="http://www.w3.org/1999/xlink" width="500" zoomAndPan="magnify" viewBox="0 0 375 374.999991" height="500" preserveAspectRatio="xMidYMid meet" version="1.0"><defs><clipPath id="58baae9aa0"><path d="M 37.5 51.1875 L 337.5 51.1875 L 337.5 106 L 37.5 106 Z M 37.5 51.1875 " clip-rule="nonzero"/></clipPath><clipPath id="1793d18a9c"><path d="M 37.5 160 L 337.5 160 L 337.5 215 L 37.5 215 Z M 37.5 160 " clip-rule="nonzero"/></clipPath><clipPath id="87c0525e00"><path d="M 37.5 269 L 337.5 269 L 337.5 324 L 37.5 324 Z M 37.5 269 " clip-rule="nonzero"/></clipPath></defs><g clip-path="url(#58baae9aa0)"><path fill="#d9d9d9" d="M 64.820312 105.710938 L 310.179688 105.710938 C 311.074219 105.710938 311.964844 105.667969 312.851562 105.582031 C 313.742188 105.492188 314.625 105.363281 315.5 105.1875 C 316.375 105.015625 317.242188 104.796875 318.09375 104.539062 C 318.949219 104.28125 319.789062 103.980469 320.613281 103.636719 C 321.4375 103.296875 322.246094 102.914062 323.03125 102.492188 C 323.820312 102.074219 324.585938 101.613281 325.328125 101.117188 C 326.070312 100.621094 326.785156 100.089844 327.476562 99.523438 C 328.167969 98.957031 328.828125 98.359375 329.457031 97.726562 C 330.089844 97.097656 330.6875 96.433594 331.253906 95.746094 C 331.820312 95.054688 332.351562 94.339844 332.847656 93.597656 C 333.34375 92.855469 333.804688 92.089844 334.222656 91.300781 C 334.644531 90.515625 335.027344 89.707031 335.367188 88.882812 C 335.710938 88.058594 336.011719 87.21875 336.269531 86.363281 C 336.527344 85.507812 336.746094 84.644531 336.917969 83.769531 C 337.09375 82.894531 337.226562 82.011719 337.3125 81.121094 C 337.398438 80.234375 337.445312 79.34375 337.445312 78.449219 C 337.445312 77.558594 337.398438 76.667969 337.3125 75.777344 C 337.226562 74.890625 337.09375 74.007812 336.917969 73.132812 C 336.746094 72.253906 336.527344 71.390625 336.269531 70.535156 C 336.011719 69.683594 335.710938 68.84375 335.367188 68.015625 C 335.027344 67.191406 334.644531 66.386719 334.222656 65.597656 C 333.804688 64.8125 333.34375 64.046875 332.847656 63.304688 C 332.351562 62.5625 331.820312 61.84375 331.253906 61.15625 C 330.6875 60.464844 330.089844 59.804688 329.457031 59.171875 C 328.828125 58.542969 328.167969 57.941406 327.476562 57.375 C 326.785156 56.808594 326.070312 56.277344 325.328125 55.78125 C 324.585938 55.285156 323.820312 54.828125 323.03125 54.40625 C 322.246094 53.984375 321.4375 53.605469 320.613281 53.261719 C 319.789062 52.921875 318.949219 52.621094 318.09375 52.363281 C 317.242188 52.101562 316.375 51.886719 315.5 51.710938 C 314.625 51.539062 313.742188 51.40625 312.851562 51.320312 C 311.964844 51.230469 311.074219 51.1875 310.179688 51.1875 L 64.820312 51.1875 C 63.925781 51.1875 63.035156 51.230469 62.148438 51.320312 C 61.257812 51.40625 60.375 51.539062 59.5 51.710938 C 58.625 51.886719 57.757812 52.101562 56.90625 52.363281 C 56.050781 52.621094 55.210938 52.921875 54.386719 53.261719 C 53.5625 53.605469 52.753906 53.984375 51.96875 54.40625 C 51.179688 54.828125 50.414062 55.285156 49.671875 55.78125 C 48.929688 56.277344 48.214844 56.808594 47.523438 57.375 C 46.832031 57.941406 46.171875 58.542969 45.542969 59.171875 C 44.910156 59.804688 44.3125 60.464844 43.746094 61.15625 C 43.179688 61.84375 42.648438 62.5625 42.152344 63.304688 C 41.65625 64.046875 41.195312 64.8125 40.773438 65.597656 C 40.355469 66.386719 39.972656 67.191406 39.632812 68.015625 C 39.289062 68.84375 38.988281 69.683594 38.730469 70.535156 C 38.472656 71.390625 38.253906 72.253906 38.082031 73.132812 C 37.90625 74.007812 37.773438 74.890625 37.6875 75.777344 C 37.601562 76.667969 37.554688 77.558594 37.554688 78.449219 C 37.554688 79.34375 37.601562 80.234375 37.6875 81.121094 C 37.773438 82.011719 37.90625 82.894531 38.082031 83.769531 C 38.253906 84.644531 38.472656 85.507812 38.730469 86.363281 C 38.988281 87.21875 39.289062 88.058594 39.632812 88.882812 C 39.972656 89.707031 40.355469 90.515625 40.773438 91.300781 C 41.195312 92.089844 41.65625 92.855469 42.152344 93.597656 C 42.648438 94.339844 43.179688 95.054688 43.746094 95.746094 C 44.3125 96.433594 44.910156 97.097656 45.542969 97.726562 C 46.171875 98.359375 46.832031 98.957031 47.523438 99.523438 C 48.214844 100.089844 48.929688 100.621094 49.671875 101.117188 C 50.414062 101.613281 51.179688 102.074219 51.96875 102.492188 C 52.753906 102.914062 53.5625 103.296875 54.386719 103.636719 C 55.210938 103.980469 56.050781 104.28125 56.90625 104.539062 C 57.757812 104.796875 58.625 105.015625 59.5 105.1875 C 60.375 105.363281 61.257812 105.492188 62.148438 105.582031 C 63.035156 105.667969 63.925781 105.710938 64.820312 105.710938 Z M 64.820312 105.710938 " fill-opacity="1" fill-rule="nonzero"/></g><g clip-path="url(#1793d18a9c)"><path fill="#d9d9d9" d="M 310.179688 160.238281 L 64.820312 160.238281 C 63.925781 160.238281 63.035156 160.28125 62.148438 160.367188 C 61.257812 160.457031 60.375 160.585938 59.5 160.761719 C 58.625 160.933594 57.757812 161.152344 56.90625 161.410156 C 56.050781 161.671875 55.210938 161.972656 54.386719 162.3125 C 53.5625 162.65625 52.753906 163.035156 51.96875 163.457031 C 51.179688 163.878906 50.414062 164.335938 49.671875 164.832031 C 48.929688 165.328125 48.214844 165.859375 47.523438 166.425781 C 46.832031 166.992188 46.171875 167.589844 45.542969 168.222656 C 44.910156 168.855469 44.3125 169.515625 43.746094 170.203125 C 43.179688 170.894531 42.648438 171.609375 42.152344 172.355469 C 41.65625 173.097656 41.195312 173.859375 40.773438 174.648438 C 40.355469 175.4375 39.972656 176.242188 39.632812 177.066406 C 39.289062 177.890625 38.988281 178.730469 38.730469 179.585938 C 38.472656 180.441406 38.253906 181.304688 38.082031 182.179688 C 37.90625 183.058594 37.773438 183.9375 37.6875 184.828125 C 37.601562 185.714844 37.554688 186.605469 37.554688 187.5 C 37.554688 188.394531 37.601562 189.285156 37.6875 190.171875 C 37.773438 191.0625 37.90625 191.941406 38.082031 192.820312 C 38.253906 193.695312 38.472656 194.558594 38.730469 195.414062 C 38.988281 196.269531 39.289062 197.109375 39.632812 197.933594 C 39.972656 198.757812 40.355469 199.5625 40.773438 200.351562 C 41.195312 201.140625 41.65625 201.902344 42.152344 202.644531 C 42.648438 203.386719 43.179688 204.105469 43.746094 204.796875 C 44.3125 205.484375 44.910156 206.144531 45.542969 206.777344 C 46.171875 207.410156 46.832031 208.007812 47.523438 208.574219 C 48.214844 209.140625 48.929688 209.671875 49.671875 210.167969 C 50.414062 210.664062 51.179688 211.121094 51.96875 211.542969 C 52.753906 211.964844 53.5625 212.34375 54.386719 212.6875 C 55.210938 213.027344 56.050781 213.328125 56.90625 213.589844 C 57.757812 213.847656 58.625 214.0625 59.5 214.238281 C 60.375 214.414062 61.257812 214.542969 62.148438 214.632812 C 63.035156 214.71875 63.925781 214.761719 64.820312 214.761719 L 310.179688 214.761719 C 311.074219 214.761719 311.964844 214.71875 312.851562 214.632812 C 313.742188 214.542969 314.625 214.414062 315.5 214.238281 C 316.375 214.0625 317.242188 213.847656 318.09375 213.589844 C 318.949219 213.328125 319.789062 213.027344 320.613281 212.6875 C 321.4375 212.34375 322.246094 211.964844 323.03125 211.542969 C 323.820312 211.121094 324.585938 210.664062 325.328125 210.167969 C 326.070312 209.671875 326.785156 209.140625 327.476562 208.574219 C 328.167969 208.007812 328.828125 207.410156 329.457031 206.777344 C 330.089844 206.144531 330.6875 205.484375 331.253906 204.796875 C 331.820312 204.105469 332.351562 203.386719 332.847656 202.644531 C 333.34375 201.902344 333.804688 201.140625 334.222656 200.351562 C 334.644531 199.5625 335.027344 198.757812 335.367188 197.933594 C 335.710938 197.109375 336.011719 196.269531 336.269531 195.414062 C 336.527344 194.558594 336.746094 193.695312 336.917969 192.820312 C 337.09375 191.941406 337.226562 191.0625 337.3125 190.171875 C 337.398438 189.285156 337.445312 188.394531 337.445312 187.5 C 337.445312 186.605469 337.398438 185.714844 337.3125 184.828125 C 337.226562 183.9375 337.09375 183.058594 336.917969 182.179688 C 336.746094 181.304688 336.527344 180.441406 336.269531 179.585938 C 336.011719 178.730469 335.710938 177.890625 335.367188 177.066406 C 335.027344 176.242188 334.644531 175.4375 334.222656 174.648438 C 333.804688 173.859375 333.34375 173.097656 332.847656 172.355469 C 332.351562 171.609375 331.820312 170.894531 331.253906 170.203125 C 330.6875 169.515625 330.089844 168.855469 329.457031 168.222656 C 328.828125 167.589844 328.167969 166.992188 327.476562 166.425781 C 326.785156 165.859375 326.070312 165.328125 325.328125 164.832031 C 324.585938 164.335938 323.820312 163.878906 323.03125 163.457031 C 322.246094 163.035156 321.4375 162.65625 320.613281 162.3125 C 319.789062 161.972656 318.949219 161.671875 318.09375 161.410156 C 317.242188 161.152344 316.375 160.933594 315.5 160.761719 C 314.625 160.585938 313.742188 160.457031 312.851562 160.367188 C 311.964844 160.28125 311.074219 160.238281 310.179688 160.238281 Z M 310.179688 160.238281 " fill-opacity="1" fill-rule="nonzero"/></g><g clip-path="url(#87c0525e00)"><path fill="#d9d9d9" d="M 310.179688 269.289062 L 64.820312 269.289062 C 63.925781 269.289062 63.035156 269.332031 62.148438 269.417969 C 61.257812 269.507812 60.375 269.636719 59.5 269.8125 C 58.625 269.984375 57.757812 270.203125 56.90625 270.460938 C 56.050781 270.71875 55.210938 271.019531 54.386719 271.363281 C 53.5625 271.703125 52.753906 272.085938 51.96875 272.507812 C 51.179688 272.925781 50.414062 273.386719 49.671875 273.882812 C 48.929688 274.378906 48.214844 274.910156 47.523438 275.476562 C 46.832031 276.042969 46.171875 276.640625 45.542969 277.273438 C 44.910156 277.902344 44.3125 278.566406 43.746094 279.253906 C 43.179688 279.945312 42.648438 280.660156 42.152344 281.402344 C 41.65625 282.144531 41.195312 282.910156 40.773438 283.699219 C 40.355469 284.484375 39.972656 285.292969 39.632812 286.117188 C 39.289062 286.941406 38.988281 287.78125 38.730469 288.636719 C 38.472656 289.492188 38.253906 290.355469 38.082031 291.230469 C 37.90625 292.105469 37.773438 292.988281 37.6875 293.878906 C 37.601562 294.765625 37.554688 295.65625 37.554688 296.550781 C 37.554688 297.441406 37.601562 298.332031 37.6875 299.222656 C 37.773438 300.109375 37.90625 300.992188 38.082031 301.867188 C 38.253906 302.746094 38.472656 303.609375 38.730469 304.464844 C 38.988281 305.316406 39.289062 306.15625 39.632812 306.984375 C 39.972656 307.808594 40.355469 308.613281 40.773438 309.402344 C 41.195312 310.1875 41.65625 310.953125 42.152344 311.695312 C 42.648438 312.4375 43.179688 313.15625 43.746094 313.84375 C 44.3125 314.535156 44.910156 315.195312 45.542969 315.828125 C 46.171875 316.457031 46.832031 317.058594 47.523438 317.625 C 48.214844 318.191406 48.929688 318.722656 49.671875 319.21875 C 50.414062 319.714844 51.179688 320.171875 51.96875 320.59375 C 52.753906 321.015625 53.5625 321.394531 54.386719 321.738281 C 55.210938 322.078125 56.050781 322.378906 56.90625 322.636719 C 57.757812 322.898438 58.625 323.113281 59.5 323.289062 C 60.375 323.460938 61.257812 323.59375 62.148438 323.679688 C 63.035156 323.769531 63.925781 323.8125 64.820312 323.8125 L 310.179688 323.8125 C 311.074219 323.8125 311.964844 323.769531 312.851562 323.679688 C 313.742188 323.59375 314.625 323.460938 315.5 323.289062 C 316.375 323.113281 317.242188 322.898438 318.09375 322.636719 C 318.949219 322.378906 319.789062 322.078125 320.613281 321.738281 C 321.4375 321.394531 322.246094 321.015625 323.03125 320.59375 C 323.820312 320.171875 324.585938 319.714844 325.328125 319.21875 C 326.070312 318.722656 326.785156 318.191406 327.476562 317.625 C 328.167969 317.058594 328.828125 316.457031 329.457031 315.828125 C 330.089844 315.195312 330.6875 314.535156 331.253906 313.84375 C 331.820312 313.15625 332.351562 312.4375 332.847656 311.695312 C 333.34375 310.953125 333.804688 310.1875 334.222656 309.402344 C 334.644531 308.613281 335.027344 307.808594 335.367188 306.984375 C 335.710938 306.15625 336.011719 305.316406 336.269531 304.464844 C 336.527344 303.609375 336.746094 302.746094 336.917969 301.867188 C 337.09375 300.992188 337.226562 300.109375 337.3125 299.222656 C 337.398438 298.332031 337.445312 297.441406 337.445312 296.550781 C 337.445312 295.65625 337.398438 294.765625 337.3125 293.878906 C 337.226562 292.988281 337.09375 292.105469 336.917969 291.230469 C 336.746094 290.355469 336.527344 289.492188 336.269531 288.636719 C 336.011719 287.78125 335.710938 286.941406 335.367188 286.117188 C 335.027344 285.292969 334.644531 284.484375 334.222656 283.699219 C 333.804688 282.910156 333.34375 282.144531 332.847656 281.402344 C 332.351562 280.660156 331.820312 279.945312 331.253906 279.253906 C 330.6875 278.566406 330.089844 277.902344 329.457031 277.273438 C 328.828125 276.640625 328.167969 276.042969 327.476562 275.476562 C 326.785156 274.910156 326.070312 274.378906 325.328125 273.882812 C 324.585938 273.386719 323.820312 272.925781 323.03125 272.507812 C 322.246094 272.085938 321.4375 271.703125 320.613281 271.363281 C 319.789062 271.019531 318.949219 270.71875 318.09375 270.460938 C 317.242188 270.203125 316.375 269.984375 315.5 269.8125 C 314.625 269.636719 313.742188 269.507812 312.851562 269.417969 C 311.964844 269.332031 311.074219 269.289062 310.179688 269.289062 Z M 310.179688 269.289062 " fill-opacity="1" fill-rule="nonzero"/></g></svg>