<svg xmlns="http://www.w3.org/2000/svg" xmlns:xlink="http://www.w3.org/1999/xlink" width="500" zoomAndPan="magnify" viewBox="0 0 375 374.999991" height="500" preserveAspectRatio="xMidYMid meet" version="1.0"><defs><clipPath id="77e0dc105f"><path d="M 114 37.5 L 260 37.5 L 260 222 L 114 222 Z M 114 37.5 " clip-rule="nonzero"/></clipPath><clipPath id="9454b4c7cb"><path d="M 197.605469 184 L 295.746094 184 L 295.746094 337.5 L 197.605469 337.5 Z M 197.605469 184 " clip-rule="nonzero"/></clipPath><clipPath id="c3cc674cd5"><path d="M 79.125 225 L 236 225 L 236 329 L 79.125 329 Z M 79.125 225 " clip-rule="nonzero"/></clipPath></defs><g clip-path="url(#77e0dc105f)"><path fill="#d9d9d9" d="M 122.601562 139.246094 L 122.601562 139.242188 C 122.867188 136.277344 123.851562 134.191406 125.0625 132.898438 C 126.265625 131.660156 127.664062 131.007812 129.695312 130.941406 C 132.023438 138.964844 133.976562 147.730469 138.269531 148.945312 C 138.269531 148.945312 137.570312 139.851562 137.875 129.128906 C 140.417969 132.71875 143.40625 136.253906 145.945312 137.292969 C 153.039062 140.207031 161.449219 121.285156 187.550781 119.644531 C 213.664062 121.285156 222.074219 140.207031 229.171875 137.292969 C 231.226562 136.453125 233.582031 133.972656 235.742188 131.152344 C 235.921875 140.972656 235.316406 148.945312 235.316406 148.945312 C 239.605469 147.730469 241.550781 138.964844 243.878906 130.941406 C 245.914062 131.007812 247.324219 131.667969 248.519531 132.902344 C 249.734375 134.191406 250.710938 136.277344 250.976562 139.238281 L 250.976562 139.242188 C 251.03125 139.890625 251.066406 140.609375 251.066406 141.367188 C 251.089844 145.75 249.980469 151.621094 247.875 156.160156 C 246.832031 158.425781 245.550781 160.355469 244.1875 161.667969 C 242.816406 162.988281 241.46875 163.695312 239.96875 163.921875 L 237.335938 164.296875 L 236.664062 166.875 C 233.074219 180.550781 227.058594 192.375 218.820312 200.625 C 210.566406 208.855469 200.246094 213.699219 187.039062 213.742188 L 186.949219 213.738281 L 186.800781 213.742188 L 186.789062 213.742188 L 186.640625 213.738281 L 186.550781 213.742188 C 173.339844 213.699219 163.019531 208.863281 154.757812 200.625 C 146.523438 192.375 140.507812 180.550781 136.921875 166.875 L 136.246094 164.296875 L 133.613281 163.921875 C 132.105469 163.695312 130.761719 162.988281 129.390625 161.667969 C 127.34375 159.710938 125.507812 156.328125 124.316406 152.550781 C 123.105469 148.785156 122.507812 144.652344 122.507812 141.367188 C 122.507812 140.609375 122.542969 139.890625 122.601562 139.246094 Z M 158.09375 76.550781 C 158.09375 71.957031 161.816406 68.230469 166.414062 68.230469 L 207.167969 68.230469 C 211.765625 68.230469 215.484375 71.957031 215.484375 76.550781 L 215.484375 89.917969 C 215.484375 94.503906 211.765625 98.230469 207.167969 98.230469 L 166.414062 98.230469 C 161.816406 98.230469 158.09375 94.503906 158.09375 89.917969 Z M 118.417969 159.519531 C 119.769531 162.453125 121.5 165.191406 123.800781 167.425781 C 125.472656 169.058594 127.503906 170.402344 129.828125 171.207031 C 133.746094 184.945312 140.03125 197.210938 149.074219 206.292969 C 158.597656 215.894531 171.320312 221.804688 186.601562 221.769531 L 186.984375 221.769531 C 202.261719 221.804688 214.984375 215.894531 224.503906 206.292969 C 233.546875 197.210938 239.832031 184.945312 243.757812 171.207031 C 246.082031 170.402344 248.113281 169.058594 249.785156 167.425781 C 253.214844 164.058594 255.421875 159.601562 256.914062 154.992188 C 258.382812 150.367188 259.085938 145.574219 259.09375 141.367188 C 259.09375 140.390625 259.054688 139.4375 258.972656 138.527344 L 258.972656 138.53125 C 258.582031 134.167969 257.058594 130.273438 254.367188 127.398438 C 252.195312 125.0625 249.203125 123.640625 245.949219 123.179688 C 246.328125 120.652344 246.867188 116.6875 246.753906 111.078125 C 250.640625 110.003906 246.738281 90.265625 246.183594 87.546875 C 241.929688 63.019531 216.789062 48.976562 196.425781 45.707031 C 196.976562 44.992188 197.28125 44.207031 197.28125 43.382812 C 197.28125 40.128906 192.578125 37.5 186.789062 37.5 C 180.996094 37.5 176.296875 40.128906 176.296875 43.382812 C 176.296875 44.207031 176.609375 44.996094 177.15625 45.707031 C 156.785156 48.976562 131.652344 63.019531 127.394531 87.546875 C 126.839844 90.265625 122.9375 110.003906 126.832031 111.078125 C 126.714844 116.6875 127.257812 120.652344 127.632812 123.175781 C 124.378906 123.640625 121.386719 125.0625 119.214844 127.398438 C 116.523438 130.277344 115 134.167969 114.609375 138.527344 C 114.609375 138.527344 114.609375 138.527344 114.609375 138.523438 L 114.59375 138.6875 L 114.609375 138.53125 C 114.519531 139.445312 114.488281 140.394531 114.488281 141.367188 C 114.5 146.972656 115.730469 153.640625 118.417969 159.519531 " fill-opacity="1" fill-rule="nonzero"/></g><path fill="#d9d9d9" d="M 161.382812 159.917969 C 165.664062 159.917969 169.117188 156.5625 169.117188 152.429688 C 169.117188 148.292969 165.664062 144.941406 161.382812 144.941406 C 157.113281 144.941406 153.65625 148.292969 153.65625 152.429688 C 153.65625 156.5625 157.113281 159.917969 161.382812 159.917969 " fill-opacity="1" fill-rule="nonzero"/><path fill="#d9d9d9" d="M 212.199219 159.917969 C 216.472656 159.917969 219.929688 156.5625 219.929688 152.429688 C 219.929688 148.292969 216.472656 144.941406 212.199219 144.941406 C 207.925781 144.941406 204.46875 148.292969 204.46875 152.429688 C 204.46875 156.5625 207.925781 159.917969 212.199219 159.917969 " fill-opacity="1" fill-rule="nonzero"/><g clip-path="url(#9454b4c7cb)"><path fill="#d9d9d9" d="M 292.234375 196.601562 C 289.660156 189.78125 284.621094 189.074219 284.621094 189.074219 C 283.9375 189.78125 283.761719 190.480469 283.761719 190.480469 L 280.351562 207.582031 C 280.351562 207.582031 278.816406 210.980469 276.660156 211.589844 C 274.5 212.179688 267.953125 212.042969 262.019531 207.792969 C 262.019531 207.792969 258.621094 206.265625 259.554688 200.699219 C 260.488281 195.164062 262.582031 186.351562 262.582031 186.351562 C 262.582031 186.351562 262.5625 185.671875 262.128906 184.871094 C 261.5 184.601562 258.847656 183.726562 256.0625 186.867188 C 252.867188 190.460938 245.960938 197.402344 244.339844 201.695312 C 242.707031 205.992188 240.835938 210.800781 243.511719 216.746094 C 245.917969 222.085938 247.726562 228.195312 245.609375 234.722656 L 223.6875 283.5 C 221.003906 287.855469 216.886719 290.503906 211.238281 293.382812 C 204.691406 296.730469 202.410156 297.59375 199.34375 304.375 C 196.28125 311.164062 198.867188 318.621094 201.457031 325.464844 C 204.035156 332.285156 209.078125 332.992188 209.078125 332.992188 C 209.761719 332.273438 209.933594 331.585938 209.933594 331.585938 L 213.347656 314.472656 C 213.347656 314.472656 214.875 311.078125 217.039062 310.476562 C 219.191406 309.878906 225.746094 310.007812 231.6875 314.261719 C 231.6875 314.261719 235.085938 315.796875 234.144531 321.351562 C 233.207031 326.90625 231.117188 335.707031 231.117188 335.707031 C 231.117188 335.707031 231.144531 336.390625 231.574219 337.183594 C 232.210938 337.453125 234.84375 338.320312 237.640625 335.1875 C 240.828125 331.601562 247.734375 324.671875 249.378906 320.367188 C 250.988281 316.074219 252.863281 311.265625 250.179688 305.320312 C 247.515625 299.402344 245.578125 292.558594 248.890625 285.234375 L 268.832031 240.753906 C 271.425781 235.003906 275.925781 232.007812 282.472656 228.667969 C 288.996094 225.335938 291.285156 224.476562 294.351562 217.679688 C 297.421875 210.894531 294.816406 203.429688 292.234375 196.601562 " fill-opacity="1" fill-rule="nonzero"/></g><path fill="#d9d9d9" d="M 286.078125 259.863281 C 284.128906 256.097656 281.199219 252.640625 277.136719 249.359375 L 273.851562 256.699219 L 259.109375 289.589844 C 258.035156 291.957031 257.851562 294.667969 260.375 300.3125 C 263.132812 306.414062 263.035156 311.863281 262.125 316.332031 C 262.011719 316.898438 261.871094 317.4375 261.738281 317.96875 C 261.675781 318.199219 261.628906 318.421875 261.566406 318.640625 C 261.429688 319.136719 261.285156 319.613281 261.140625 320.078125 C 261.058594 320.335938 260.976562 320.585938 260.894531 320.828125 C 260.765625 321.230469 260.625 321.632812 260.492188 322.003906 C 260.285156 322.558594 260.085938 323.113281 259.898438 323.609375 C 259.875 323.675781 259.839844 323.738281 259.816406 323.800781 C 267.375 322.636719 274.371094 321.261719 280.566406 319.675781 C 280.5625 319.605469 280.554688 319.546875 280.539062 319.476562 C 285.734375 318.113281 290.40625 316.613281 294.332031 314.949219 C 294.332031 314.949219 291.660156 270.671875 286.078125 259.863281 " fill-opacity="1" fill-rule="nonzero"/><g clip-path="url(#c3cc674cd5)"><path fill="#d9d9d9" d="M 129.050781 240.574219 C 130.546875 240.019531 132.097656 239.460938 133.679688 238.902344 C 137.304688 249.933594 141.714844 268.488281 143.277344 296.332031 C 148.925781 296.664062 155.746094 296.996094 162.523438 297.261719 L 162.523438 297.121094 C 171.25 297.492188 180.207031 297.777344 186.789062 297.839844 C 187.90625 297.832031 189.117188 297.808594 190.363281 297.785156 C 194.421875 289.609375 198.84375 286.96875 205.503906 283.582031 L 206.476562 283.089844 C 210.789062 280.886719 212.886719 279.445312 214.058594 277.859375 L 235.085938 231.066406 C 235.1875 230.671875 235.203125 230.242188 235.238281 229.828125 C 230.855469 228.386719 226.273438 226.949219 221.460938 225.523438 C 213.324219 237.507812 201.890625 245.085938 186.960938 245.085938 C 186.933594 245.085938 186.917969 245.078125 186.902344 245.078125 C 186.867188 245.078125 186.832031 245.085938 186.800781 245.085938 C 186.800781 245.085938 186.796875 245.085938 186.789062 245.085938 C 186.789062 245.085938 186.785156 245.085938 186.777344 245.085938 C 186.746094 245.085938 186.722656 245.078125 186.6875 245.078125 C 186.671875 245.078125 186.644531 245.085938 186.625 245.085938 C 171.6875 245.085938 160.261719 237.507812 152.117188 225.527344 C 141.925781 228.550781 132.632812 231.609375 124.433594 234.683594 C 124.40625 234.734375 124.386719 234.789062 124.351562 234.847656 C 103.839844 242.621094 92.484375 250.21875 87.511719 259.863281 C 81.921875 270.671875 79.25 314.949219 79.25 314.949219 C 83.191406 316.613281 87.84375 318.113281 93.039062 319.476562 C 93.035156 319.546875 93.023438 319.605469 93.023438 319.675781 C 115.492188 325.4375 148.300781 328.441406 181.589844 328.707031 C 181.917969 328.707031 182.257812 328.714844 182.589844 328.726562 C 183.988281 328.726562 185.386719 328.730469 186.796875 328.726562 C 188.203125 328.730469 189.597656 328.726562 190.996094 328.726562 C 191.125 328.726562 191.238281 328.714844 191.363281 328.714844 C 190.996094 327.746094 190.597656 326.683594 190.195312 325.546875 C 190.195312 325.539062 190.195312 325.535156 190.195312 325.53125 C 189.792969 324.402344 188.792969 321.152344 189.007812 321.886719 L 187.996094 321.890625 L 181.792969 321.875 C 155.910156 321.671875 131.667969 319.757812 112.589844 316.523438 L 113.507812 308.261719 C 113.507812 308.261719 122.910156 297.875 121.933594 276.34375 C 121.238281 261.125 119.621094 251.449219 117.890625 245.277344 C 120.945312 243.890625 124.304688 242.5 128.007812 241.089844 C 128.378906 240.949219 128.722656 240.777344 129.050781 240.574219 " fill-opacity="1" fill-rule="nonzero"/></g></svg>