<svg xmlns="http://www.w3.org/2000/svg" xmlns:xlink="http://www.w3.org/1999/xlink" width="500" zoomAndPan="magnify" viewBox="0 0 375 374.999991" height="500" preserveAspectRatio="xMidYMid meet" version="1.0"><defs><clipPath id="d3954aa7b1"><path d="M 83.835938 70.425781 L 337.003906 70.425781 L 337.003906 337.777344 L 83.835938 337.777344 Z M 83.835938 70.425781 " clip-rule="nonzero"/></clipPath></defs><g clip-path="url(#d3954aa7b1)"><path fill="#103941" d="M 107.488281 208.011719 C 104.089844 208.011719 101.929688 208.910156 101.042969 209.753906 C 95.898438 214.636719 95.183594 216.90625 100.597656 226.394531 C 102.363281 229.484375 104.644531 232.320312 108.003906 235.582031 C 124.246094 251.359375 141.566406 266.582031 158.316406 281.304688 L 158.417969 281.394531 C 163.128906 285.535156 168.003906 289.820312 172.785156 294.054688 C 174.480469 295.558594 176.167969 297.066406 177.859375 298.578125 C 187.328125 307.046875 197.117188 315.800781 207.882812 322.746094 C 217.160156 328.726562 226.933594 331.636719 237.765625 331.636719 C 243.933594 331.636719 250.554688 330.648438 257.441406 328.703125 C 271.390625 324.730469 286.648438 315.546875 298.242188 304.148438 C 307.988281 294.5625 319.8125 278.859375 320.789062 258.46875 L 320.792969 258.28125 L 320.824219 258.082031 C 322.53125 245.699219 320.492188 232.886719 318.519531 220.496094 L 318.515625 220.46875 C 317.671875 215.171875 316.800781 209.695312 316.214844 204.246094 C 315.957031 201.882812 315.617188 199.453125 315.289062 197.105469 L 315.28125 197.0625 C 314.335938 190.335938 313.359375 183.378906 314.015625 175.992188 C 315.1875 162.804688 320.765625 151.726562 326.15625 141.011719 L 326.207031 140.910156 C 327.234375 138.871094 328.296875 136.765625 329.296875 134.6875 C 332.070312 128.957031 330.636719 124.011719 325.359375 121.109375 C 323.796875 120.25 321.3125 119.777344 318.371094 119.777344 C 309.933594 119.777344 299.417969 123.515625 295.40625 127.941406 C 287.542969 136.617188 283.796875 147.410156 283.960938 160.9375 C 284.0625 169.46875 279.742188 175.9375 272.105469 178.6875 C 269.910156 179.480469 267.703125 179.878906 265.558594 179.878906 C 260.289062 179.878906 255.402344 177.539062 251.035156 172.925781 C 246.308594 167.929688 235.855469 154.304688 226.636719 142.28125 L 226.617188 142.253906 C 219.59375 133.097656 212.957031 124.449219 210.125 121.261719 C 204.964844 115.449219 199.425781 108.375 194.070312 101.539062 C 186.652344 92.0625 178.980469 82.265625 174.957031 79.484375 C 172.597656 77.855469 170.175781 77.027344 167.75 77.027344 C 167.089844 77.027344 166.417969 77.089844 165.75 77.210938 C 161.558594 77.96875 157.839844 80.90625 156.050781 84.875 C 154.703125 87.859375 154.675781 90.566406 155.96875 93.140625 C 159.253906 99.34375 165.535156 107.570312 171.085938 114.828125 L 171.113281 114.863281 C 172.027344 116.0625 172.925781 117.238281 173.785156 118.371094 C 193.484375 144.347656 206.859375 162.910156 212.460938 172.046875 C 213.480469 173.707031 213.527344 175.773438 212.589844 177.453125 C 211.628906 179.164062 209.816406 180.230469 207.863281 180.230469 C 206.359375 180.230469 204.90625 179.578125 203.882812 178.4375 C 192.261719 165.5 161.769531 131.007812 146.511719 113.457031 C 145 111.726562 143.535156 109.941406 142.121094 108.214844 C 137.96875 103.148438 133.671875 97.90625 128.320312 94.1875 C 125.257812 92.058594 122.214844 90.980469 119.265625 90.980469 C 116.660156 90.980469 114.113281 91.84375 111.703125 93.542969 C 107.035156 96.832031 105.523438 102.265625 107.761719 107.714844 C 110.792969 115.09375 121.691406 126.832031 130.449219 136.265625 C 134.253906 140.363281 137.539062 143.898438 139.867188 146.726562 C 145.09375 153.089844 150.679688 159.367188 156.078125 165.4375 C 162.210938 172.332031 168.554688 179.457031 174.476562 186.816406 C 175.773438 188.425781 177.492188 190.28125 179.308594 192.246094 C 182.753906 195.976562 186.65625 200.191406 189.464844 204.621094 C 190.628906 206.457031 190.710938 208.769531 189.675781 210.652344 C 188.621094 212.574219 186.617188 213.765625 184.457031 213.765625 C 183.121094 213.765625 181.851562 213.320312 180.78125 212.46875 C 173.679688 206.847656 161.996094 194.335938 153.464844 185.203125 C 150.839844 182.390625 148.570312 179.960938 146.832031 178.152344 C 143.925781 175.136719 141.035156 172.023438 138.234375 169.015625 C 130.789062 161.003906 123.097656 152.726562 114.714844 145.78125 C 110.738281 142.488281 106.011719 140.597656 101.742188 140.597656 C 96.4375 140.597656 92.699219 143.445312 90.933594 148.832031 C 88.773438 155.429688 92.386719 160.894531 98.914062 167.574219 C 106.449219 175.289062 114.265625 183.007812 121.820312 190.472656 L 121.894531 190.542969 C 126.039062 194.640625 130.328125 198.878906 134.523438 203.066406 C 143.691406 212.222656 163.128906 232.21875 171.054688 242.367188 C 172.40625 244.097656 172.65625 246.382812 171.703125 248.335938 C 170.746094 250.300781 168.734375 251.570312 166.574219 251.570312 C 165.292969 251.570312 164.070312 251.136719 163.039062 250.316406 C 157.761719 246.113281 150.390625 239.425781 142.585938 232.347656 C 132.765625 223.441406 122.621094 214.234375 117.492188 210.832031 C 114.796875 209.039062 111.148438 208.011719 107.488281 208.011719 Z M 237.765625 337.964844 C 225.679688 337.964844 214.785156 334.726562 204.453125 328.0625 C 193.265625 320.847656 183.292969 311.925781 173.644531 303.300781 C 171.957031 301.789062 170.277344 300.285156 168.585938 298.789062 C 163.816406 294.566406 158.949219 290.285156 154.238281 286.148438 L 154.144531 286.0625 C 137.328125 271.285156 119.949219 256.007812 103.597656 240.125 C 99.792969 236.429688 97.171875 233.160156 95.097656 229.53125 C 91.675781 223.535156 90.351562 219.640625 90.527344 216.089844 C 90.761719 211.386719 93.773438 207.925781 96.683594 205.160156 C 99.050781 202.917969 102.886719 201.683594 107.488281 201.683594 C 112.363281 201.683594 117.285156 203.09375 120.996094 205.558594 C 126.519531 209.226562 136.84375 218.59375 146.832031 227.652344 C 152.128906 232.460938 157.21875 237.078125 161.546875 240.824219 C 152.429688 230.296875 137.671875 215.152344 130.050781 207.546875 C 125.871094 203.371094 121.585938 199.140625 117.445312 195.046875 L 117.371094 194.976562 C 109.796875 187.492188 101.960938 179.753906 94.386719 172 C 89.753906 167.257812 81.128906 158.429688 84.917969 146.859375 C 87.542969 138.855469 93.675781 134.265625 101.742188 134.265625 C 107.460938 134.265625 113.660156 136.6875 118.753906 140.910156 C 127.453125 148.117188 135.289062 156.546875 142.867188 164.699219 C 145.652344 167.695312 148.523438 170.789062 151.390625 173.761719 C 153.167969 175.605469 155.449219 178.050781 158.09375 180.882812 C 165.628906 188.953125 175.664062 199.699219 182.507812 205.667969 C 180.175781 202.507812 177.28125 199.378906 174.667969 196.554688 C 172.769531 194.496094 170.980469 192.5625 169.546875 190.785156 C 163.722656 183.550781 157.433594 176.480469 151.351562 169.644531 C 145.910156 163.527344 140.285156 157.203125 134.976562 150.75 C 132.769531 148.066406 129.546875 144.59375 125.8125 140.574219 C 116.707031 130.765625 105.375 118.558594 101.910156 110.121094 C 100.269531 106.132812 99.980469 101.96875 101.070312 98.085938 C 102.167969 94.175781 104.582031 90.816406 108.054688 88.371094 C 111.558594 85.902344 115.328125 84.648438 119.265625 84.648438 C 123.53125 84.648438 127.789062 86.113281 131.933594 88.988281 C 138.007812 93.214844 142.585938 98.800781 147.015625 104.199219 C 148.402344 105.894531 149.835938 107.640625 151.285156 109.304688 C 163.472656 123.320312 185.382812 148.148438 199.609375 164.144531 C 192.597656 154.078125 182.152344 139.878906 168.742188 122.195312 C 167.886719 121.066406 166.992188 119.898438 166.082031 118.707031 L 166.054688 118.671875 C 160.351562 111.203125 153.882812 102.742188 150.359375 96.074219 L 150.332031 96.023438 C 148.171875 91.742188 148.152344 86.988281 150.28125 82.273438 C 152.914062 76.433594 158.410156 72.105469 164.625 70.980469 C 165.664062 70.792969 166.714844 70.695312 167.75 70.695312 C 171.488281 70.695312 175.121094 71.902344 178.558594 74.277344 C 183.371094 77.605469 190.640625 86.886719 199.054688 97.632812 C 204.347656 104.398438 209.828125 111.390625 214.855469 117.058594 C 217.84375 120.417969 224.542969 129.152344 231.636719 138.402344 L 231.65625 138.425781 C 240.785156 150.332031 251.132812 163.820312 255.632812 168.574219 C 258.757812 171.878906 262.097656 173.550781 265.558594 173.550781 C 266.972656 173.550781 268.453125 173.277344 269.960938 172.734375 C 275.050781 170.902344 277.699219 166.847656 277.632812 161.011719 C 277.449219 145.8125 281.730469 133.601562 290.714844 123.691406 C 295.921875 117.949219 308.070312 113.449219 318.371094 113.449219 C 322.417969 113.449219 325.890625 114.179688 328.410156 115.5625 C 336.648438 120.089844 339.238281 128.679688 334.996094 137.445312 C 333.96875 139.566406 332.898438 141.695312 331.859375 143.753906 L 331.8125 143.855469 C 326.683594 154.039062 321.386719 164.570312 320.320312 176.550781 C 319.726562 183.21875 320.65625 189.808594 321.550781 196.179688 L 321.558594 196.222656 C 321.894531 198.621094 322.242188 201.101562 322.507812 203.570312 C 323.078125 208.859375 323.9375 214.257812 324.765625 219.472656 L 324.773438 219.5 C 326.8125 232.316406 328.921875 245.570312 327.105469 258.863281 C 325.996094 281.261719 313.214844 298.300781 302.679688 308.660156 C 290.367188 320.769531 274.097656 330.539062 259.167969 334.796875 C 251.714844 336.898438 244.519531 337.964844 237.765625 337.964844 " fill-opacity="1" fill-rule="nonzero"/></g><path fill="#103941" d="M 204.949219 44.96875 C 222.148438 54.652344 236.070312 69.554688 244.792969 87.246094 C 247.210938 92.144531 249.148438 97.210938 250.691406 102.46875 C 251.902344 106.613281 258.394531 104.851562 257.171875 100.683594 C 251.308594 80.644531 239.246094 62.4375 223.058594 49.246094 C 218.4375 45.480469 213.539062 42.085938 208.339844 39.164062 C 204.566406 37.039062 201.171875 42.847656 204.949219 44.96875 " fill-opacity="1" fill-rule="nonzero"/><path fill="#103941" d="M 198.058594 64.792969 C 213.292969 73.738281 224.539062 88.6875 229.378906 105.640625 C 230.5625 109.796875 237.054688 108.027344 235.863281 103.851562 C 231.742188 89.425781 223.363281 76.140625 211.894531 66.425781 C 208.628906 63.660156 205.144531 61.152344 201.453125 58.984375 C 197.714844 56.789062 194.328125 62.601562 198.058594 64.792969 " fill-opacity="1" fill-rule="nonzero"/><path fill="#103941" d="M 38.757812 239.9375 C 47.78125 258.71875 62.734375 274.597656 80.785156 284.972656 C 85.984375 287.957031 91.460938 290.464844 97.09375 292.519531 C 98.800781 293.140625 100.777344 291.820312 101.230469 290.171875 C 101.746094 288.296875 100.59375 286.65625 98.882812 286.03125 C 80.664062 279.394531 64.398438 266.925781 53.140625 251.09375 C 49.871094 246.5 47.007812 241.625 44.566406 236.542969 C 43.777344 234.90625 41.441406 234.476562 39.964844 235.335938 C 38.292969 236.316406 37.96875 238.296875 38.757812 239.9375 " fill-opacity="1" fill-rule="nonzero"/><path fill="#103941" d="M 58.984375 234.347656 C 65.679688 247.65625 76.628906 258.773438 89.613281 266.03125 C 93.453125 268.183594 97.496094 269.976562 101.636719 271.453125 C 103.347656 272.066406 105.316406 270.765625 105.773438 269.105469 C 106.285156 267.246094 105.140625 265.582031 103.425781 264.96875 C 86.820312 259.046875 72.714844 246.703125 64.789062 230.953125 C 63.976562 229.328125 61.6875 228.871094 60.1875 229.746094 C 58.539062 230.710938 58.164062 232.71875 58.984375 234.347656 " fill-opacity="1" fill-rule="nonzero"/></svg>