<svg xmlns="http://www.w3.org/2000/svg" xmlns:xlink="http://www.w3.org/1999/xlink" width="500" zoomAndPan="magnify" viewBox="0 0 375 374.999991" height="500" preserveAspectRatio="xMidYMid meet" version="1.0"><defs><clipPath id="4b96a86560"><path d="M 45 37.5 L 266 37.5 L 266 337.5 L 45 337.5 Z M 45 37.5 " clip-rule="nonzero"/></clipPath></defs><g clip-path="url(#4b96a86560)"><path fill="#103941" d="M 111.5 37.957031 C 109.96875 37.957031 108.515625 38.621094 107.515625 39.761719 L 46.128906 110.324219 C 45.292969 111.289062 44.828125 112.527344 44.84375 113.804688 L 44.84375 331.609375 C 44.84375 334.488281 47.1875 336.847656 50.089844 336.847656 L 260.230469 337.027344 C 263.132812 337.027344 265.492188 334.664062 265.492188 331.761719 L 265.492188 249.085938 C 265.570312 246.125 263.191406 243.6875 260.230469 243.6875 C 257.265625 243.6875 254.886719 246.125 254.945312 249.085938 L 254.945312 326.5 L 55.378906 326.320312 L 55.378906 119.066406 L 118.933594 119.066406 C 121.835938 119.066406 124.195312 116.710938 124.195312 113.804688 L 124.195312 65.523438 C 124.257812 62.558594 121.816406 60.136719 118.851562 60.179688 C 115.949219 60.214844 113.628906 62.613281 113.664062 65.523438 L 113.664062 108.539062 L 61.644531 108.539062 L 113.878906 48.484375 L 254.949219 48.484375 L 254.949219 135.019531 C 254.890625 137.980469 257.269531 140.417969 260.234375 140.417969 C 263.195312 140.417969 265.574219 137.980469 265.492188 135.019531 L 265.492188 43.226562 C 265.492188 40.320312 263.132812 37.957031 260.234375 37.957031 Z M 111.5 37.957031 " fill-opacity="1" fill-rule="evenodd"/></g><path fill="#103941" d="M 106.179688 133.71875 C 103.238281 133.683594 100.835938 136.039062 100.835938 138.984375 C 100.835938 141.925781 103.238281 144.285156 106.179688 144.246094 L 204.160156 144.246094 C 207.082031 144.285156 209.503906 141.925781 209.503906 138.984375 C 209.503906 136.039062 207.085938 133.679688 204.160156 133.71875 Z M 106.179688 133.71875 " fill-opacity="1" fill-rule="nonzero"/><path fill="#103941" d="M 85.355469 161.644531 C 82.410156 161.605469 80.011719 163.96875 80.011719 166.910156 C 80.011719 169.851562 82.410156 172.214844 85.355469 172.171875 L 107.765625 172.171875 C 110.707031 172.214844 113.109375 169.851562 113.109375 166.910156 C 113.109375 163.96875 110.710938 161.605469 107.765625 161.644531 Z M 85.355469 161.644531 " fill-opacity="1" fill-rule="nonzero"/><path fill="#103941" d="M 129.035156 161.644531 C 126.09375 161.605469 123.691406 163.96875 123.691406 166.910156 C 123.691406 169.851562 126.09375 172.214844 129.035156 172.171875 L 224.949219 172.171875 C 227.894531 172.214844 230.289062 169.851562 230.289062 166.910156 C 230.289062 163.96875 227.894531 161.605469 224.949219 161.644531 Z M 129.035156 161.644531 " fill-opacity="1" fill-rule="nonzero"/><path fill="#103941" d="M 85.355469 189.574219 C 82.410156 189.53125 80.011719 191.894531 80.011719 194.835938 C 80.011719 197.777344 82.410156 200.140625 85.355469 200.101562 L 195.824219 200.101562 C 198.765625 200.140625 201.167969 197.777344 201.167969 194.835938 C 201.167969 191.894531 198.765625 189.53125 195.824219 189.574219 Z M 85.355469 189.574219 " fill-opacity="1" fill-rule="nonzero"/><path fill="#103941" d="M 206.699219 233.140625 L 220.089844 246.53125 L 211.289062 263.058594 L 193.113281 267.570312 L 208.5 252.1875 C 211.964844 248.839844 209.46875 242.972656 204.652344 243.144531 C 203.273438 243.183594 201.980469 243.746094 201.027344 244.734375 L 185.699219 260.097656 L 190.195312 241.964844 Z M 291.097656 147.5 L 305.515625 161.9375 C 283.28125 192.648438 262.183594 215.96875 228.613281 240.164062 L 213.085938 224.601562 C 237.238281 190.925781 260.152344 169.289062 291.097656 147.5 Z M 311.03125 135.636719 C 312.714844 135.617188 314.320312 136.191406 315.984375 137.417969 C 318.246094 139.097656 319.0625 142.679688 315.675781 147.574219 C 314.339844 149.511719 313.046875 151.3125 311.710938 153.210938 L 299.984375 141.460938 C 301.859375 140.183594 303.640625 138.925781 305.597656 137.644531 C 307.570312 136.332031 309.351562 135.675781 311.03125 135.636719 Z M 312.621094 125.246094 C 308.441406 124.976562 303.929688 126.09375 299.769531 128.84375 C 258.699219 155.980469 230.40625 181.351562 200.367188 224.644531 L 183.164062 233.71875 C 181.847656 234.4375 180.90625 235.675781 180.535156 237.128906 L 170.914062 275.945312 C 169.945312 279.78125 173.433594 283.285156 177.257812 282.335938 L 216.105469 272.699219 C 217.558594 272.351562 218.792969 271.382812 219.488281 270.046875 L 228.585938 252.839844 C 271.917969 222.785156 296.4375 193.949219 324.34375 153.554688 C 330.011719 145.351562 329.066406 135.566406 323.453125 129.96875 C 320.652344 127.160156 316.796875 125.511719 312.621094 125.246094 Z M 312.621094 125.246094 " fill-opacity="1" fill-rule="nonzero"/><path fill="#103941" d="M 107.492188 239.71875 C 102.851562 242.792969 98.074219 247.667969 93.3125 253.496094 C 83.789062 265.1875 74.617188 280.011719 72.851562 292.203125 C 71.554688 301.066406 76.183594 307.585938 80.886719 310.203125 C 85.582031 312.816406 90.269531 312.773438 90.269531 312.773438 C 97.300781 312.90625 97.488281 302.375 90.464844 302.246094 C 90.464844 302.246094 87.96875 302.09375 85.992188 300.988281 C 84 299.886719 82.492188 299.148438 83.269531 293.707031 C 84.386719 286.082031 92.792969 270.835938 101.496094 260.171875 C 104.324219 256.710938 107.144531 253.578125 109.707031 251.371094 C 112.140625 249.300781 114.171875 248.890625 114.660156 252.609375 C 114.875 254.367188 114.738281 256.480469 114.40625 258.996094 C 113.632812 264.972656 111.929688 271.980469 110.148438 278.714844 C 108.367188 285.449219 106.511719 291.894531 105.390625 297.140625 C 104.832031 299.773438 104.386719 302.09375 104.347656 304.339844 C 104.328125 305.464844 104.386719 306.566406 104.753906 307.882812 C 105.140625 309.179688 105.996094 310.882812 107.773438 311.984375 C 110.347656 313.59375 113.695312 313.921875 116.441406 313.148438 C 119.191406 312.375 121.460938 310.84375 123.679688 308.914062 C 126.449219 306.527344 129.367188 302.191406 132.214844 298.441406 C 132.199219 301.570312 132.253906 304.433594 132.199219 307.402344 C 132.15625 309.277344 133.101562 311.023438 134.695312 311.984375 C 137.015625 313.4375 139.9375 314.058594 142.667969 313.671875 C 145.398438 313.269531 147.871094 312.0625 150.210938 310.402344 C 154.902344 307.074219 159.390625 301.808594 164.363281 294.375 C 168.273438 288.550781 159.519531 282.691406 155.613281 288.515625 C 151.632812 294.457031 147.949219 298.480469 145.335938 300.882812 C 143.011719 302.988281 142.765625 301.734375 142.796875 300.050781 C 142.859375 296.890625 142.992188 293.714844 142.683594 290.875 C 142.261719 286.660156 140.765625 283.910156 137.863281 282.4375 C 134.015625 280.488281 130.765625 283.289062 128.671875 286.136719 C 124.292969 292.039062 120.886719 296.972656 117.988281 299.820312 C 116.210938 301.601562 115.355469 300.847656 116.035156 297.792969 C 117.023438 293.300781 118.726562 287.574219 120.328125 281.433594 C 122.148438 274.5625 123.953125 267.234375 124.835938 260.378906 C 125.730469 253.527344 126.023438 247.121094 123.332031 241.527344 C 118.449219 235.363281 113.128906 236.46875 107.492188 239.71875 Z M 107.492188 239.71875 " fill-opacity="1" fill-rule="nonzero"/></svg>