<svg xmlns="http://www.w3.org/2000/svg" xmlns:xlink="http://www.w3.org/1999/xlink" width="500" zoomAndPan="magnify" viewBox="0 0 375 374.999991" height="500" preserveAspectRatio="xMidYMid meet" version="1.0"><defs><clipPath id="ea551c3325"><path d="M 37.5 49 L 337.5 49 L 337.5 326 L 37.5 326 Z M 37.5 49 " clip-rule="nonzero"/></clipPath></defs><g clip-path="url(#ea551c3325)"><path fill="#103941" d="M 51.695312 60.917969 L 323.25 60.917969 C 324.582031 60.917969 325.648438 61.953125 325.648438 63.285156 L 325.648438 247.085938 C 325.648438 248.390625 324.582031 249.429688 323.25 249.429688 L 51.695312 249.429688 C 50.390625 249.429688 49.324219 248.390625 49.324219 247.085938 L 49.324219 63.285156 C 49.324219 61.953125 50.390625 60.917969 51.695312 60.917969 Z M 43.4375 49.089844 C 40.164062 49.089844 37.5 51.726562 37.5 55.003906 L 37.5 255.394531 C 37.5 258.671875 40.164062 261.308594 43.414062 261.308594 C 43.4375 261.308594 43.4375 261.308594 43.4375 261.308594 L 157.484375 261.308594 C 160.761719 261.308594 163.421875 263.96875 163.421875 267.246094 L 163.421875 278.007812 C 163.421875 297.636719 147.496094 313.5625 127.867188 313.5625 L 125.070312 313.5625 L 125.070312 325.707031 L 249.929688 325.707031 L 249.929688 313.5625 L 247.132812 313.5625 C 227.503906 313.5625 211.578125 297.636719 211.578125 278.007812 L 211.578125 267.246094 C 211.578125 263.96875 214.238281 261.308594 217.515625 261.308594 L 331.585938 261.308594 C 334.835938 261.308594 337.5 258.671875 337.5 255.394531 L 337.5 55.003906 C 337.5 51.726562 334.835938 49.089844 331.585938 49.089844 L 43.4375 49.089844 " fill-opacity="1" fill-rule="nonzero"/></g><path fill="#103941" d="M 88.53125 206.230469 C 86.640625 206.253906 85.148438 207.800781 85.175781 209.691406 C 85.199219 211.527344 86.691406 213.019531 88.53125 213.046875 L 150.746094 213.046875 C 152.636719 213.019531 154.128906 211.476562 154.101562 209.609375 C 154.074219 207.746094 152.582031 206.253906 150.746094 206.230469 L 88.53125 206.230469 " fill-opacity="1" fill-rule="nonzero"/><path fill="#103941" d="M 88.53125 191.820312 C 86.640625 191.847656 85.148438 193.390625 85.175781 195.28125 C 85.199219 197.121094 86.691406 198.613281 88.53125 198.636719 L 150.746094 198.636719 C 152.636719 198.613281 154.128906 197.066406 154.101562 195.203125 C 154.074219 193.339844 152.582031 191.847656 150.746094 191.820312 L 88.53125 191.820312 " fill-opacity="1" fill-rule="nonzero"/><path fill="#103941" d="M 123.046875 87.761719 L 123.046875 128.992188 L 158.734375 149.578125 C 169.015625 127.980469 159.882812 102.144531 138.28125 91.863281 C 133.488281 89.574219 128.320312 88.1875 123.046875 87.761719 " fill-opacity="1" fill-rule="nonzero"/><path fill="#103941" d="M 116.230469 87.761719 L 116.230469 132.90625 L 155.328125 155.492188 C 141.769531 175.199219 114.816406 180.179688 95.109375 166.625 C 75.398438 153.066406 70.390625 126.113281 83.949219 106.40625 C 91.351562 95.644531 103.203125 88.800781 116.230469 87.761719 " fill-opacity="1" fill-rule="nonzero"/><path fill="#103941" d="M 249.210938 141.535156 L 234.347656 117.992188 C 232.351562 114.796875 228.144531 113.863281 224.945312 115.859375 C 224.335938 116.234375 223.800781 116.714844 223.347656 117.273438 L 204.171875 140.363281 L 198.898438 135.996094 L 218.101562 112.90625 C 222.921875 107.125 231.523438 106.328125 237.304688 111.148438 C 238.398438 112.050781 239.355469 113.144531 240.128906 114.34375 L 254.988281 137.886719 C 257.011719 141.082031 261.195312 142.042969 264.390625 140.019531 C 265.109375 139.566406 265.722656 139.003906 266.203125 138.339844 L 288.253906 108.882812 L 284.980469 106.433594 L 297.441406 102.277344 L 296.964844 115.433594 L 293.714844 112.984375 L 271.660156 142.414062 C 267.160156 148.460938 258.613281 149.6875 252.59375 145.183594 C 251.261719 144.171875 250.117188 142.949219 249.238281 141.535156 L 249.210938 141.535156 " fill-opacity="1" fill-rule="nonzero"/><path fill="#103941" d="M 281.808594 139.644531 L 294.804688 139.644531 L 294.804688 201.488281 L 281.808594 201.488281 L 281.808594 139.644531 " fill-opacity="1" fill-rule="nonzero"/><path fill="#103941" d="M 251.6875 201.488281 L 251.6875 166.304688 L 264.710938 166.304688 L 264.710938 201.488281 L 251.6875 201.488281 " fill-opacity="1" fill-rule="nonzero"/><path fill="#103941" d="M 221.5625 201.488281 L 221.5625 131.839844 L 234.589844 131.839844 L 234.589844 201.488281 L 221.5625 201.488281 " fill-opacity="1" fill-rule="nonzero"/><path fill="#103941" d="M 204.464844 201.488281 L 191.46875 201.488281 L 191.46875 151.46875 L 204.464844 151.46875 L 204.464844 201.488281 " fill-opacity="1" fill-rule="nonzero"/></svg>