<svg xmlns="http://www.w3.org/2000/svg" xmlns:xlink="http://www.w3.org/1999/xlink" width="500" zoomAndPan="magnify" viewBox="0 0 375 374.999991" height="500" preserveAspectRatio="xMidYMid meet" version="1.0"><defs><clipPath id="206814053b"><path d="M 37.5 37.5 L 337.5 37.5 L 337.5 337.5 L 37.5 337.5 Z M 37.5 37.5 " clip-rule="nonzero"/></clipPath></defs><g clip-path="url(#206814053b)"><path fill="#103941" d="M 278.851562 291.75 C 265.675781 319.074219 230.140625 337.429688 190.4375 337.429688 C 154.128906 337.429688 121.308594 322.082031 105.878906 298.566406 L 102.800781 310.058594 C 102.195312 312.324219 99.863281 313.671875 97.597656 313.0625 C 95.328125 312.457031 93.984375 310.125 94.59375 307.859375 L 100.460938 285.941406 C 100.753906 284.855469 101.464844 283.925781 102.441406 283.363281 C 103.417969 282.796875 104.578125 282.644531 105.667969 282.9375 L 127.582031 288.808594 C 129.847656 289.417969 131.195312 291.75 130.585938 294.015625 C 129.976562 296.285156 127.648438 297.628906 125.378906 297.023438 L 112.816406 293.65625 C 126.578125 314.980469 156.78125 328.929688 190.4375 328.929688 C 226.949219 328.929688 259.40625 312.503906 271.195312 288.058594 C 272.214844 285.941406 274.757812 285.054688 276.875 286.078125 C 278.988281 287.097656 279.875 289.636719 278.851562 291.75 Z M 286.136719 37.507812 L 283.6875 37.507812 C 282.835938 37.617188 281.980469 37.835938 281.148438 38.183594 L 268.0625 43.617188 C 268.0625 43.617188 268.0625 43.617188 268.0625 43.621094 C 265.617188 44.632812 263.722656 46.523438 262.730469 48.949219 C 261.726562 51.375 261.734375 54.050781 262.746094 56.488281 L 263.652344 58.65625 L 256.488281 62.140625 C 253.707031 63.488281 251.027344 63.71875 248.054688 62.855469 L 220.824219 54.953125 C 211.394531 52.210938 200.867188 56.308594 192.40625 59.601562 L 139.652344 79.9375 C 130.664062 83.398438 125.078125 94.34375 127.933594 102.898438 C 129.101562 106.398438 134.6875 117.328125 157.40625 110.875 L 176.183594 105.539062 C 175.488281 106.675781 175.078125 108.003906 175.078125 109.433594 C 175.078125 112.214844 173.539062 114.511719 170.960938 115.582031 C 168.382812 116.648438 165.671875 116.109375 163.703125 114.144531 C 160.78125 111.222656 156.03125 111.226562 153.113281 114.144531 L 146.136719 121.117188 C 143.21875 124.039062 143.21875 128.789062 146.136719 131.710938 C 148.105469 133.675781 148.640625 136.390625 147.574219 138.96875 C 146.507812 141.546875 144.207031 143.085938 141.425781 143.085938 C 137.296875 143.085938 133.9375 146.445312 133.9375 150.574219 L 133.9375 160.4375 C 133.9375 164.566406 137.296875 167.925781 141.425781 167.925781 C 144.207031 167.925781 146.507812 169.464844 147.574219 172.042969 C 148.640625 174.621094 148.105469 177.332031 146.136719 179.300781 C 143.21875 182.222656 143.21875 186.972656 146.136719 189.894531 L 153.113281 196.867188 C 154.523438 198.28125 156.40625 199.0625 158.40625 199.0625 C 160.410156 199.0625 162.289062 198.28125 163.703125 196.867188 C 165.675781 194.898438 168.390625 194.355469 170.964844 195.421875 C 173.542969 196.488281 175.078125 198.789062 175.078125 201.578125 C 175.078125 205.707031 178.4375 209.070312 182.570312 209.070312 L 192.429688 209.070312 C 196.558594 209.070312 199.921875 205.707031 199.921875 201.578125 C 199.921875 198.796875 201.457031 196.496094 204.035156 195.433594 C 206.617188 194.363281 209.328125 194.898438 211.292969 196.867188 C 212.707031 198.28125 214.589844 199.0625 216.59375 199.0625 C 218.59375 199.0625 220.476562 198.28125 221.890625 196.867188 L 228.863281 189.894531 C 231.78125 186.972656 231.78125 182.222656 228.863281 179.300781 C 226.894531 177.332031 226.359375 174.621094 227.425781 172.042969 C 228.488281 169.464844 230.792969 167.925781 233.574219 167.925781 C 237.703125 167.925781 241.0625 164.5625 241.0625 160.4375 L 241.0625 150.574219 C 241.0625 146.445312 237.703125 143.085938 233.574219 143.085938 C 232.097656 143.085938 230.871094 142.660156 229.898438 142.007812 C 230.835938 141.378906 231.722656 140.65625 232.535156 139.835938 L 245.300781 127.074219 C 253.082031 125.394531 260.839844 121.226562 266.433594 115.703125 C 272.039062 112.9375 278.113281 110.277344 284.078125 107.6875 L 284.917969 109.722656 C 286.492188 113.5 290.160156 115.777344 294.019531 115.777344 C 295.273438 115.777344 296.550781 115.535156 297.777344 115.027344 L 310.871094 109.589844 C 313.304688 108.578125 315.199219 106.683594 316.203125 104.257812 C 317.195312 101.835938 317.191406 99.160156 316.175781 96.722656 L 294.003906 43.488281 C 292.601562 40.113281 289.527344 37.933594 286.136719 37.507812 Z M 283.9375 228.589844 C 273.21875 228.589844 264.492188 219.867188 264.492188 209.148438 C 264.492188 198.429688 273.21875 189.707031 283.9375 189.707031 C 294.65625 189.707031 303.378906 198.429688 303.378906 209.148438 C 303.378906 219.867188 294.65625 228.589844 283.9375 228.589844 Z M 283.9375 181.207031 C 299.339844 181.207031 311.882812 193.738281 311.882812 209.148438 C 311.882812 224.558594 299.339844 237.089844 283.9375 237.089844 C 268.527344 237.089844 255.988281 224.558594 255.988281 209.148438 C 255.988281 193.738281 268.527344 181.207031 283.9375 181.207031 Z M 329 213.097656 C 323.191406 213.464844 318.269531 216.972656 316.007812 222.433594 C 313.742188 227.894531 314.746094 233.855469 318.59375 238.21875 L 313.007812 243.808594 C 308.640625 239.957031 302.683594 238.957031 297.214844 241.21875 C 291.757812 243.480469 288.253906 248.402344 287.890625 254.210938 L 279.980469 254.210938 C 279.617188 248.394531 276.117188 243.472656 270.65625 241.210938 C 265.195312 238.949219 259.238281 239.953125 254.867188 243.808594 L 249.277344 238.21875 C 253.128906 233.851562 254.128906 227.894531 251.867188 222.433594 C 249.601562 216.972656 244.683594 213.464844 238.875 213.097656 L 238.875 205.199219 C 244.683594 204.832031 249.601562 201.324219 251.867188 195.867188 C 254.128906 190.40625 253.128906 184.445312 249.277344 180.082031 L 254.867188 174.492188 C 259.230469 178.339844 265.1875 179.339844 270.65625 177.078125 C 276.117188 174.816406 279.617188 169.894531 279.980469 164.089844 L 287.890625 164.089844 C 288.253906 169.894531 291.757812 174.816406 297.214844 177.078125 C 302.683594 179.339844 308.640625 178.339844 313.007812 174.492188 L 318.59375 180.082031 C 314.746094 184.445312 313.742188 190.40625 316.007812 195.867188 C 318.269531 201.324219 323.191406 204.832031 329 205.199219 Z M 330.011719 196.726562 C 334.140625 196.726562 337.5 200.089844 337.5 204.21875 L 337.5 214.078125 C 337.5 218.207031 334.140625 221.570312 330.011719 221.570312 C 327.230469 221.570312 324.929688 223.109375 323.859375 225.6875 C 322.796875 228.265625 323.332031 230.976562 325.296875 232.941406 C 328.21875 235.867188 328.21875 240.617188 325.296875 243.535156 L 318.328125 250.511719 C 315.40625 253.433594 310.648438 253.433594 307.730469 250.511719 C 305.761719 248.542969 303.054688 248.003906 300.472656 249.074219 C 297.894531 250.144531 296.355469 252.441406 296.355469 255.21875 C 296.355469 259.351562 292.996094 262.714844 288.867188 262.714844 L 279.003906 262.714844 C 274.875 262.714844 271.519531 259.351562 271.519531 255.21875 C 271.519531 252.433594 269.976562 250.132812 267.398438 249.066406 C 264.824219 248.003906 262.109375 248.539062 260.140625 250.511719 C 257.222656 253.429688 252.464844 253.429688 249.546875 250.511719 L 242.574219 243.535156 C 239.652344 240.613281 239.652344 235.867188 242.574219 232.941406 C 244.542969 230.976562 245.078125 228.265625 244.011719 225.6875 C 242.945312 223.109375 240.640625 221.570312 237.859375 221.570312 C 233.730469 221.570312 230.375 218.207031 230.375 214.078125 L 230.375 204.21875 C 230.375 200.089844 233.730469 196.726562 237.859375 196.726562 C 240.640625 196.726562 242.945312 195.1875 244.011719 192.609375 C 245.078125 190.03125 244.542969 187.320312 242.574219 185.351562 C 239.652344 182.433594 239.652344 177.679688 242.574219 174.761719 L 249.546875 167.785156 C 252.464844 164.863281 257.222656 164.867188 260.140625 167.785156 C 262.109375 169.753906 264.820312 170.289062 267.398438 169.222656 C 269.976562 168.152344 271.519531 165.855469 271.519531 163.074219 C 271.519531 158.945312 274.875 155.585938 279.003906 155.585938 L 288.867188 155.585938 C 292.996094 155.585938 296.355469 158.945312 296.355469 163.074219 C 296.355469 165.855469 297.894531 168.15625 300.472656 169.222656 C 303.046875 170.289062 305.761719 169.753906 307.730469 167.785156 C 310.648438 164.863281 315.40625 164.863281 318.328125 167.785156 L 325.296875 174.757812 C 328.21875 177.679688 328.21875 182.433594 325.296875 185.351562 C 323.332031 187.320312 322.796875 190.03125 323.859375 192.609375 C 324.929688 195.1875 327.230469 196.726562 330.011719 196.726562 Z M 91.0625 241.859375 C 80.339844 241.859375 71.621094 233.136719 71.621094 222.414062 C 71.621094 211.695312 80.339844 202.976562 91.0625 202.976562 C 101.785156 202.976562 110.507812 211.695312 110.507812 222.414062 C 110.507812 233.136719 101.785156 241.859375 91.0625 241.859375 Z M 119.007812 222.414062 C 119.007812 207.007812 106.472656 194.472656 91.0625 194.472656 C 75.65625 194.472656 63.117188 207.007812 63.117188 222.414062 C 63.117188 237.824219 75.65625 250.359375 91.0625 250.359375 C 106.472656 250.359375 119.007812 237.824219 119.007812 222.414062 Z M 87.109375 267.476562 C 86.746094 261.664062 83.246094 256.742188 77.785156 254.480469 C 72.324219 252.214844 66.363281 253.21875 61.996094 257.074219 L 56.40625 251.484375 C 60.253906 247.121094 61.253906 241.160156 58.992188 235.699219 C 56.730469 230.238281 51.8125 226.734375 46 226.367188 L 46 218.464844 C 51.8125 218.101562 56.730469 214.59375 58.992188 209.132812 C 61.253906 203.667969 60.253906 197.710938 56.40625 193.347656 L 61.996094 187.757812 C 66.359375 191.609375 72.316406 192.609375 77.777344 190.34375 C 83.242188 188.085938 86.746094 183.164062 87.109375 177.355469 L 95.015625 177.355469 C 95.378906 183.164062 98.882812 188.085938 104.34375 190.34375 C 109.808594 192.609375 115.765625 191.609375 120.132812 187.757812 L 125.71875 193.347656 C 121.875 197.710938 120.875 203.667969 123.132812 209.132812 C 125.398438 214.59375 130.320312 218.101562 136.125 218.464844 L 136.125 226.367188 C 130.316406 226.734375 125.398438 230.238281 123.132812 235.699219 C 120.875 241.160156 121.871094 247.121094 125.71875 251.484375 L 120.132812 257.074219 C 115.765625 253.226562 109.808594 252.226562 104.34375 254.484375 C 98.882812 256.75 95.378906 261.671875 95.015625 267.476562 Z M 103.484375 268.488281 C 103.484375 272.621094 100.125 275.976562 95.996094 275.976562 L 86.132812 275.976562 C 82.003906 275.976562 78.640625 272.621094 78.640625 268.488281 C 78.640625 265.703125 77.105469 263.402344 74.53125 262.332031 C 71.953125 261.269531 69.238281 261.808594 67.269531 263.78125 C 64.347656 266.699219 59.59375 266.699219 56.675781 263.78125 L 49.703125 256.804688 C 46.78125 253.882812 46.78125 249.132812 49.703125 246.210938 C 51.667969 244.246094 52.207031 241.53125 51.136719 238.953125 C 50.070312 236.378906 47.773438 234.835938 44.988281 234.835938 C 40.859375 234.835938 37.5 231.476562 37.5 227.347656 L 37.5 217.484375 C 37.5 213.355469 40.859375 209.996094 44.988281 209.996094 C 47.773438 209.996094 50.070312 208.457031 51.136719 205.878906 C 52.207031 203.300781 51.667969 200.589844 49.703125 198.621094 C 46.78125 195.699219 46.78125 190.949219 49.703125 188.027344 L 56.675781 181.054688 C 59.59375 178.132812 64.347656 178.132812 67.265625 181.054688 C 69.234375 183.019531 71.949219 183.558594 74.527344 182.492188 C 77.101562 181.421875 78.640625 179.125 78.640625 176.34375 C 78.640625 172.214844 82 168.851562 86.128906 168.851562 L 95.996094 168.851562 C 100.125 168.851562 103.484375 172.214844 103.484375 176.34375 C 103.484375 179.125 105.023438 181.421875 107.597656 182.492188 C 110.175781 183.558594 112.890625 183.019531 114.859375 181.054688 C 117.777344 178.132812 122.53125 178.132812 125.449219 181.054688 L 132.421875 188.027344 C 133.835938 189.441406 134.617188 191.324219 134.617188 193.324219 C 134.617188 195.324219 133.835938 197.207031 132.421875 198.621094 C 130.457031 200.589844 129.921875 203.300781 130.988281 205.878906 C 132.054688 208.457031 134.351562 209.996094 137.136719 209.996094 C 141.265625 209.996094 144.625 213.351562 144.625 217.484375 L 144.625 227.347656 C 144.625 231.476562 141.265625 234.835938 137.136719 234.835938 C 134.351562 234.835938 132.054688 236.378906 130.988281 238.953125 C 129.921875 241.53125 130.457031 244.246094 132.421875 246.210938 C 133.835938 247.625 134.617188 249.503906 134.617188 251.507812 C 134.617188 253.507812 133.835938 255.386719 132.421875 256.804688 L 125.449219 263.777344 C 122.53125 266.699219 117.777344 266.699219 114.859375 263.777344 C 112.890625 261.808594 110.175781 261.273438 107.597656 262.339844 C 105.023438 263.410156 103.484375 265.707031 103.484375 268.488281 Z M 142.707031 87.867188 L 193.816406 68.171875 L 195.492188 67.523438 C 202.753906 64.695312 211.789062 61.179688 218.453125 63.117188 L 245.6875 71.019531 C 250.664062 72.464844 255.546875 72.046875 260.203125 69.785156 L 266.925781 66.515625 L 280.800781 99.839844 C 274.480469 102.582031 268.027344 105.414062 262.019531 108.402344 C 261.59375 108.617188 261.199219 108.902344 260.863281 109.246094 C 256.195312 114.050781 249.144531 117.777344 242.464844 118.964844 C 241.605469 119.117188 240.820312 119.53125 240.203125 120.144531 L 226.523438 133.824219 C 224.847656 135.503906 222.59375 136.429688 220.195312 136.429688 C 217.792969 136.429688 215.546875 135.503906 213.867188 133.824219 C 210.378906 130.335938 210.378906 124.660156 213.867188 121.167969 L 229.042969 106.011719 C 229.90625 105.148438 230.347656 103.957031 230.277344 102.738281 C 230.203125 101.523438 229.601562 100.390625 228.640625 99.644531 C 220.394531 93.210938 211.875 86.554688 200.003906 89.929688 L 155.082031 102.691406 C 144.800781 105.613281 137.488281 104.65625 136 100.199219 C 134.703125 96.316406 137.542969 89.859375 142.707031 87.867188 Z M 270.589844 52.191406 C 270.675781 51.960938 270.886719 51.652344 271.324219 51.46875 L 284.40625 46.035156 C 285.078125 45.753906 285.878906 46.085938 286.160156 46.753906 L 308.332031 99.988281 C 308.507812 100.425781 308.433594 100.789062 308.34375 101.019531 C 308.246094 101.246094 308.039062 101.558594 307.609375 101.738281 L 294.515625 107.175781 C 293.847656 107.449219 293.046875 107.121094 292.765625 106.453125 L 270.601562 53.21875 C 270.417969 52.785156 270.492188 52.421875 270.589844 52.191406 Z M 206.941406 155.503906 C 206.941406 166.222656 198.21875 174.949219 187.5 174.949219 C 176.78125 174.949219 168.058594 166.222656 168.058594 155.503906 C 168.058594 144.78125 176.78125 136.0625 187.5 136.0625 C 198.21875 136.0625 206.941406 144.78125 206.941406 155.503906 Z M 232.558594 151.550781 L 232.558594 159.453125 C 226.753906 159.820312 221.835938 163.324219 219.570312 168.785156 C 217.3125 174.25 218.304688 180.207031 222.160156 184.570312 L 216.570312 190.160156 C 212.203125 186.3125 206.246094 185.3125 200.785156 187.574219 C 195.324219 189.839844 191.816406 194.757812 191.449219 200.566406 L 183.550781 200.566406 C 183.183594 194.753906 179.679688 189.828125 174.21875 187.566406 C 168.757812 185.304688 162.796875 186.304688 158.429688 190.160156 L 152.839844 184.570312 C 156.691406 180.207031 157.691406 174.25 155.425781 168.789062 C 153.167969 163.324219 148.246094 159.820312 142.4375 159.453125 L 142.4375 151.550781 C 148.246094 151.1875 153.167969 147.683594 155.425781 142.21875 C 157.691406 136.757812 156.691406 130.800781 152.839844 126.433594 L 158.429688 120.847656 C 162.796875 124.695312 168.753906 125.695312 174.214844 123.433594 C 179.675781 121.167969 183.183594 116.25 183.550781 110.441406 L 191.449219 110.441406 C 191.730469 114.769531 193.796875 118.707031 197.21875 121.363281 C 198.960938 122.714844 200.96875 123.660156 203.074219 124.167969 C 202.53125 126.972656 202.683594 129.886719 203.523438 132.628906 C 198.984375 129.441406 193.460938 127.558594 187.5 127.558594 C 172.089844 127.558594 159.558594 140.097656 159.558594 155.503906 C 159.558594 170.914062 172.089844 183.449219 187.5 183.449219 C 202.910156 183.449219 215.445312 170.914062 215.445312 155.503906 C 215.445312 151.089844 214.414062 146.914062 212.578125 143.199219 C 214.921875 144.332031 217.511719 144.933594 220.195312 144.933594 C 220.46875 144.933594 220.742188 144.925781 221.015625 144.914062 C 223.609375 148.773438 227.816406 151.242188 232.558594 151.550781 Z M 207.855469 115.15625 C 207.554688 115.460938 207.273438 115.773438 206.996094 116.09375 C 205.390625 116.171875 203.75 115.671875 202.429688 114.648438 C 201.492188 113.917969 199.921875 112.273438 199.921875 109.429688 C 199.921875 105.300781 196.5625 101.941406 192.433594 101.941406 L 188.835938 101.941406 L 202.328125 98.109375 C 208.480469 96.359375 213.308594 98.785156 219.59375 103.429688 Z M 207.855469 115.15625 " fill-opacity="1" fill-rule="evenodd"/></g></svg>