<svg xmlns="http://www.w3.org/2000/svg" xmlns:xlink="http://www.w3.org/1999/xlink" width="500" zoomAndPan="magnify" viewBox="0 0 375 374.999991" height="500" preserveAspectRatio="xMidYMid meet" version="1.0"><defs><clipPath id="928f1077c8"><path d="M 37.5 37.5 L 337.5 37.5 L 337.5 337.5 L 37.5 337.5 Z M 37.5 37.5 " clip-rule="nonzero"/></clipPath></defs><g clip-path="url(#928f1077c8)"><path fill="#103941" d="M 314.199219 156.210938 L 307.777344 156.210938 C 304.222656 156.210938 301.082031 153.90625 299.964844 150.558594 C 298.082031 144.90625 295.847656 139.394531 293.128906 134.164062 C 291.523438 130.953125 292.082031 127.117188 294.664062 124.535156 L 299.265625 119.929688 C 308.335938 110.859375 308.335938 96 299.265625 86.929688 L 287.964844 75.765625 C 278.894531 66.699219 264.105469 66.699219 254.964844 75.765625 L 250.359375 80.371094 C 247.847656 82.882812 243.941406 83.511719 240.800781 81.90625 C 235.570312 79.253906 230.058594 76.953125 224.40625 75.070312 C 220.988281 73.953125 218.753906 70.8125 218.753906 67.253906 L 218.753906 60.835938 C 218.753906 48 208.289062 37.535156 195.453125 37.535156 L 179.617188 37.535156 C 166.777344 37.535156 156.3125 48 156.3125 60.835938 L 156.3125 67.253906 C 156.3125 70.8125 154.011719 73.953125 150.664062 75.070312 C 145.011719 76.953125 139.5 79.1875 134.265625 81.90625 C 131.058594 83.511719 127.222656 82.953125 124.640625 80.371094 L 120.035156 75.765625 C 110.964844 66.699219 96.105469 66.699219 87.035156 75.765625 L 75.800781 87 C 66.734375 96.070312 66.734375 110.929688 75.800781 120 L 80.40625 124.605469 C 82.917969 127.117188 83.546875 130.953125 81.941406 134.164062 C 79.289062 139.394531 76.988281 144.90625 75.105469 150.558594 C 73.988281 153.976562 70.847656 156.210938 67.289062 156.210938 L 60.871094 156.210938 C 47.964844 156.210938 37.5 166.675781 37.5 179.582031 L 37.5 195.417969 C 37.5 208.253906 47.964844 218.722656 60.800781 218.722656 L 67.222656 218.722656 C 70.777344 218.722656 73.917969 221.023438 75.035156 224.371094 C 76.917969 230.023438 79.152344 235.535156 81.871094 240.765625 C 83.476562 243.976562 82.917969 247.8125 80.335938 250.394531 L 75.734375 255 C 66.664062 264.070312 66.664062 278.929688 75.734375 288 L 87.035156 299.164062 C 96.105469 308.234375 110.894531 308.234375 120.035156 299.164062 L 124.640625 294.558594 C 127.152344 292.046875 131.058594 291.417969 134.199219 293.023438 C 139.429688 295.675781 144.941406 297.976562 150.59375 299.859375 C 154.011719 300.976562 156.246094 304.117188 156.246094 307.675781 L 156.246094 314.164062 C 156.246094 327 166.710938 337.464844 179.546875 337.464844 L 195.382812 337.464844 C 208.222656 337.464844 218.6875 327 218.6875 314.164062 L 218.6875 307.675781 C 218.6875 304.117188 220.988281 300.976562 224.335938 299.859375 C 229.988281 297.976562 235.5 295.746094 240.734375 293.023438 C 243.941406 291.417969 247.777344 291.976562 250.359375 294.558594 L 254.964844 299.164062 C 264.035156 308.234375 278.894531 308.234375 287.964844 299.164062 L 299.199219 287.929688 C 308.265625 278.859375 308.265625 264 299.199219 254.929688 L 294.59375 250.324219 C 292.082031 247.8125 291.453125 243.976562 293.058594 240.765625 C 295.710938 235.535156 298.011719 230.023438 299.894531 224.371094 C 301.011719 220.953125 304.152344 218.722656 307.710938 218.722656 L 314.128906 218.722656 C 326.964844 218.722656 337.429688 208.253906 337.429688 195.417969 L 337.429688 179.582031 C 337.5 166.675781 327.035156 156.210938 314.199219 156.210938 Z M 322.5 195.347656 C 322.5 199.953125 318.734375 203.652344 314.199219 203.652344 L 307.777344 203.652344 C 297.734375 203.652344 288.871094 210.070312 285.734375 219.628906 C 284.128906 224.511719 282.105469 229.324219 279.800781 233.929688 C 275.265625 242.929688 276.941406 253.746094 284.058594 260.929688 L 288.664062 265.535156 C 291.941406 268.8125 291.941406 274.046875 288.664062 277.324219 L 277.429688 288.558594 C 274.152344 291.835938 268.847656 291.765625 265.640625 288.558594 L 261.035156 283.953125 C 253.917969 276.835938 243.105469 275.09375 234.035156 279.699219 C 229.429688 282 224.6875 284.023438 219.734375 285.628906 C 210.175781 288.765625 203.753906 297.628906 203.753906 307.675781 L 203.753906 314.164062 C 203.753906 318.765625 199.988281 322.464844 195.453125 322.464844 L 179.617188 322.464844 C 175.011719 322.464844 171.3125 318.699219 171.3125 314.164062 L 171.3125 307.675781 C 171.3125 297.628906 164.894531 288.765625 155.335938 285.628906 C 150.453125 284.023438 145.640625 282 141.035156 279.699219 C 137.6875 278.023438 134.058594 277.1875 130.5 277.1875 C 124.5 277.1875 118.570312 279.558594 114.105469 284.023438 L 109.5 288.628906 C 106.222656 291.835938 100.988281 291.90625 97.710938 288.628906 L 86.476562 277.394531 C 83.199219 274.117188 83.199219 268.882812 86.476562 265.605469 L 91.082031 261 C 98.199219 253.882812 99.941406 243.070312 95.335938 234 C 93.035156 229.394531 91.011719 224.652344 89.40625 219.699219 C 86.265625 210.140625 77.40625 203.722656 67.359375 203.722656 L 60.941406 203.722656 C 56.335938 203.722656 52.640625 199.953125 52.640625 195.417969 L 52.640625 179.582031 C 52.640625 174.976562 56.40625 171.277344 60.941406 171.277344 L 67.359375 171.277344 C 77.40625 171.277344 86.265625 164.859375 89.40625 155.300781 C 91.011719 150.417969 93.035156 145.605469 95.335938 141 C 99.871094 132 98.199219 121.1875 91.082031 114 L 86.476562 109.394531 C 83.199219 106.117188 83.199219 100.882812 86.476562 97.605469 L 97.710938 86.371094 C 100.988281 83.09375 106.222656 83.09375 109.5 86.371094 L 114.105469 90.976562 C 121.222656 98.09375 132.105469 99.835938 141.105469 95.234375 C 145.710938 92.929688 150.453125 90.90625 155.40625 89.300781 C 164.964844 86.164062 171.382812 77.300781 171.382812 67.253906 L 171.382812 60.835938 C 171.382812 56.234375 175.152344 52.535156 179.6875 52.535156 L 195.523438 52.535156 C 200.128906 52.535156 203.824219 56.300781 203.824219 60.835938 L 203.824219 67.253906 C 203.824219 77.300781 210.246094 86.164062 219.800781 89.300781 C 224.6875 90.90625 229.5 92.929688 234.105469 95.234375 C 243.105469 99.765625 253.917969 98.09375 261.105469 90.976562 L 265.710938 86.371094 C 268.917969 83.09375 274.222656 83.09375 277.5 86.371094 L 288.734375 97.605469 C 292.011719 100.882812 292.011719 106.117188 288.734375 109.394531 L 284.128906 114 C 277.011719 121.117188 275.265625 131.929688 279.871094 141 C 282.175781 145.605469 284.199219 150.347656 285.800781 155.300781 C 288.941406 164.859375 297.800781 171.277344 307.847656 171.277344 L 314.265625 171.277344 C 318.871094 171.277344 322.570312 175.046875 322.570312 179.582031 L 322.570312 195.347656 Z M 322.5 195.347656 " fill-opacity="1" fill-rule="nonzero"/></g><path fill="#103941" d="M 187.5 108.699219 C 144.105469 108.699219 108.734375 144 108.734375 187.464844 C 108.734375 230.929688 144.105469 266.234375 187.5 266.234375 C 230.894531 266.234375 266.265625 230.859375 266.265625 187.464844 C 266.265625 144.070312 230.894531 108.699219 187.5 108.699219 Z M 187.5 251.234375 C 152.335938 251.234375 123.734375 222.628906 123.734375 187.464844 C 123.734375 152.300781 152.335938 123.699219 187.5 123.699219 C 222.664062 123.699219 251.265625 152.300781 251.265625 187.464844 C 251.265625 222.628906 222.664062 251.234375 187.5 251.234375 Z M 187.5 251.234375 " fill-opacity="1" fill-rule="nonzero"/></svg>